<?xml version="1.0" encoding="UTF-8"?>
<svg xmlns="http://www.w3.org/2000/svg" xmlns:xlink="http://www.w3.org/1999/xlink" width="226pt" height="226pt" viewBox="0 0 226 226" version="1.1">
<g id="surface17">
<rect x="0" y="0" width="226" height="226" style="fill:rgb(100%,100%,100%);fill-opacity:1;stroke:none;"/>
<path style="fill:none;stroke-width:0.75;stroke-linecap:round;stroke-linejoin:round;stroke:rgb(0%,0%,0%);stroke-opacity:1;stroke-miterlimit:10;" d="M 31.074219 113 L 31.074219 113.351562 L 31.078125 113.707031 L 31.085938 114.410156 L 31.09375 114.765625 L 31.101562 115.117188 L 31.125 115.820312 L 31.136719 116.175781 L 31.183594 117.230469 L 31.203125 117.585938 L 31.222656 117.9375 L 31.292969 118.992188 L 31.347656 119.695312 L 31.441406 120.75 L 31.511719 121.453125 L 31.550781 121.804688 L 31.589844 122.152344 L 31.667969 122.855469 L 31.714844 123.203125 L 31.757812 123.554688 L 31.804688 123.90625 L 31.851562 124.253906 L 31.902344 124.605469 L 32.003906 125.300781 L 32.058594 125.648438 L 32.113281 126 L 32.167969 126.347656 L 32.226562 126.695312 L 32.289062 127.042969 L 32.347656 127.390625 L 32.410156 127.738281 L 32.476562 128.085938 L 32.542969 128.429688 L 32.675781 129.125 L 32.746094 129.46875 L 32.820312 129.816406 L 32.890625 130.160156 L 32.96875 130.503906 L 33.042969 130.847656 L 33.199219 131.535156 L 33.445312 132.566406 L 33.53125 132.910156 L 33.617188 133.25 L 33.707031 133.59375 L 33.792969 133.933594 L 33.886719 134.273438 L 33.976562 134.617188 L 34.070312 134.957031 L 34.167969 135.296875 L 34.265625 135.632812 L 34.460938 136.3125 L 34.5625 136.648438 L 34.664062 136.988281 L 34.980469 137.996094 L 35.199219 138.667969 L 35.3125 139.003906 L 35.425781 139.335938 L 35.539062 139.671875 L 35.652344 140.003906 L 35.769531 140.335938 L 35.890625 140.667969 L 36.007812 141 L 36.128906 141.332031 L 36.253906 141.664062 L 36.378906 141.992188 L 36.503906 142.324219 L 36.628906 142.652344 L 36.886719 143.308594 L 37.152344 143.964844 L 37.285156 144.289062 L 37.421875 144.617188 L 37.695312 145.265625 L 37.976562 145.914062 L 38.121094 146.234375 L 38.261719 146.558594 L 38.410156 146.878906 L 38.554688 147.199219 L 38.851562 147.839844 L 39.003906 148.160156 L 39.15625 148.476562 L 39.308594 148.796875 L 39.777344 149.746094 L 39.9375 150.058594 L 40.097656 150.375 L 40.257812 150.6875 L 40.75 151.625 L 40.917969 151.933594 L 41.085938 152.246094 L 41.257812 152.554688 L 41.425781 152.863281 L 41.597656 153.171875 L 41.773438 153.476562 L 41.949219 153.785156 L 42.300781 154.394531 L 42.660156 155.003906 L 43.394531 156.207031 L 43.582031 156.507812 L 43.769531 156.804688 L 43.960938 157.101562 L 44.148438 157.398438 L 44.339844 157.695312 L 44.535156 157.992188 L 45.121094 158.871094 L 45.320312 159.164062 L 45.519531 159.453125 L 45.71875 159.746094 L 46.125 160.324219 L 46.328125 160.609375 L 46.535156 160.898438 L 46.949219 161.46875 L 47.160156 161.75 L 47.371094 162.035156 L 47.792969 162.597656 L 48.007812 162.878906 L 48.222656 163.15625 L 48.441406 163.4375 L 48.878906 163.992188 L 49.097656 164.265625 L 49.320312 164.542969 L 49.542969 164.816406 L 49.765625 165.085938 L 49.992188 165.359375 L 50.214844 165.628906 L 50.445312 165.898438 L 50.671875 166.167969 L 50.902344 166.4375 L 51.363281 166.96875 L 51.832031 167.5 L 52.066406 167.761719 L 52.304688 168.023438 L 52.539062 168.285156 L 52.777344 168.542969 L 53.019531 168.804688 L 53.261719 169.0625 L 53.5 169.316406 L 53.746094 169.574219 L 53.988281 169.828125 L 54.480469 170.335938 L 54.726562 170.585938 L 55.226562 171.085938 L 55.476562 171.332031 L 55.730469 171.582031 L 55.980469 171.828125 L 56.234375 172.070312 L 56.492188 172.316406 L 56.746094 172.558594 L 57.003906 172.800781 L 57.261719 173.039062 L 57.519531 173.28125 L 58.042969 173.757812 L 58.566406 174.226562 L 59.097656 174.695312 L 59.628906 175.15625 L 59.898438 175.386719 L 60.707031 176.066406 L 60.980469 176.289062 L 61.253906 176.515625 L 61.527344 176.734375 L 61.800781 176.957031 L 62.632812 177.613281 L 62.910156 177.828125 L 63.753906 178.472656 L 64.035156 178.683594 L 64.320312 178.894531 L 64.601562 179.101562 L 64.886719 179.308594 L 65.175781 179.515625 L 65.460938 179.722656 L 66.328125 180.332031 L 66.617188 180.53125 L 66.910156 180.730469 L 67.199219 180.925781 L 67.492188 181.125 L 67.789062 181.320312 L 68.082031 181.515625 L 68.972656 182.089844 L 69.566406 182.464844 L 69.867188 182.652344 L 70.769531 183.203125 L 71.378906 183.5625 L 71.679688 183.742188 L 71.988281 183.917969 L 72.597656 184.269531 L 72.90625 184.445312 L 73.214844 184.617188 L 73.523438 184.785156 L 73.832031 184.957031 L 74.144531 185.125 L 74.453125 185.289062 L 74.765625 185.457031 L 75.078125 185.621094 L 75.390625 185.78125 L 75.703125 185.945312 L 76.019531 186.105469 L 76.335938 186.261719 L 76.648438 186.417969 L 76.964844 186.574219 L 77.285156 186.730469 L 77.601562 186.882812 L 77.921875 187.035156 L 78.238281 187.183594 L 79.199219 187.628906 L 79.523438 187.773438 L 79.84375 187.917969 L 80.816406 188.339844 L 81.464844 188.613281 L 81.792969 188.746094 L 82.117188 188.882812 L 82.445312 189.015625 L 83.429688 189.402344 L 83.757812 189.527344 L 84.089844 189.652344 L 84.417969 189.777344 L 85.414062 190.140625 L 86.078125 190.375 L 86.414062 190.492188 L 86.746094 190.605469 L 87.082031 190.714844 L 87.414062 190.828125 L 88.085938 191.046875 L 88.421875 191.152344 L 88.761719 191.257812 L 89.433594 191.460938 L 90.113281 191.664062 L 90.449219 191.761719 L 90.789062 191.855469 L 91.128906 191.953125 L 91.46875 192.046875 L 91.808594 192.136719 L 92.152344 192.226562 L 92.492188 192.316406 L 92.835938 192.40625 L 93.175781 192.492188 L 93.519531 192.574219 L 93.863281 192.660156 L 94.207031 192.738281 L 94.550781 192.820312 L 95.238281 192.976562 L 95.925781 193.125 L 96.273438 193.199219 L 96.617188 193.269531 L 96.964844 193.339844 L 97.308594 193.410156 L 97.65625 193.476562 L 98.003906 193.539062 L 98.347656 193.605469 L 98.695312 193.667969 L 99.738281 193.84375 L 100.089844 193.902344 L 100.4375 193.957031 L 100.785156 194.007812 L 101.132812 194.0625 L 101.484375 194.113281 L 101.832031 194.160156 L 102.183594 194.207031 L 102.53125 194.253906 L 103.234375 194.339844 L 103.582031 194.382812 L 104.285156 194.460938 L 104.988281 194.53125 L 105.335938 194.566406 L 106.039062 194.628906 L 106.390625 194.65625 L 106.742188 194.6875 L 107.09375 194.710938 L 107.449219 194.738281 L 107.800781 194.761719 L 108.855469 194.820312 L 109.207031 194.835938 L 109.5625 194.851562 L 109.914062 194.867188 L 110.617188 194.890625 L 110.972656 194.898438 L 111.675781 194.914062 L 112.03125 194.917969 L 112.734375 194.925781 L 113.089844 194.925781 L 113.441406 194.921875 L 113.792969 194.921875 L 114.148438 194.917969 L 115.203125 194.894531 L 115.558594 194.886719 L 115.910156 194.875 L 116.613281 194.84375 L 116.96875 194.828125 L 117.320312 194.8125 L 117.671875 194.792969 L 118.023438 194.769531 L 118.375 194.75 L 118.726562 194.722656 L 119.082031 194.699219 L 119.785156 194.644531 L 120.839844 194.550781 L 121.1875 194.515625 L 121.539062 194.480469 L 122.59375 194.363281 L 122.941406 194.320312 L 123.292969 194.277344 L 123.640625 194.230469 L 123.992188 194.183594 L 124.339844 194.136719 L 124.691406 194.085938 L 125.039062 194.035156 L 125.390625 193.984375 L 126.085938 193.875 L 127.128906 193.699219 L 127.824219 193.574219 L 128.171875 193.507812 L 128.515625 193.441406 L 128.863281 193.375 L 129.210938 193.304688 L 129.554688 193.234375 L 129.902344 193.164062 L 130.589844 193.015625 L 131.621094 192.78125 L 132.308594 192.617188 L 132.652344 192.53125 L 132.996094 192.449219 L 133.335938 192.359375 L 133.679688 192.273438 L 134.019531 192.183594 L 134.359375 192.089844 L 134.699219 192 L 135.039062 191.90625 L 136.058594 191.613281 L 136.394531 191.511719 L 136.734375 191.410156 L 137.070312 191.308594 L 137.410156 191.203125 L 138.082031 190.992188 L 138.753906 190.773438 L 139.085938 190.660156 L 139.421875 190.546875 L 139.753906 190.433594 L 140.085938 190.316406 L 140.421875 190.199219 L 140.753906 190.082031 L 141.085938 189.960938 L 141.414062 189.839844 L 142.078125 189.589844 L 142.734375 189.339844 L 143.0625 189.210938 L 143.390625 189.078125 L 143.71875 188.949219 L 144.046875 188.816406 L 144.371094 188.679688 L 144.699219 188.542969 L 145.347656 188.269531 L 145.671875 188.128906 L 145.992188 187.988281 L 146.316406 187.84375 L 146.636719 187.699219 L 146.960938 187.554688 L 147.921875 187.109375 L 148.238281 186.957031 L 148.558594 186.804688 L 148.875 186.652344 L 149.824219 186.183594 L 150.136719 186.023438 L 150.453125 185.863281 L 150.765625 185.699219 L 151.078125 185.539062 L 151.390625 185.375 L 151.703125 185.207031 L 152.011719 185.039062 L 152.324219 184.871094 L 152.632812 184.699219 L 152.941406 184.53125 L 153.246094 184.355469 L 153.554688 184.183594 L 153.859375 184.007812 L 154.167969 183.832031 L 154.46875 183.652344 L 155.078125 183.292969 L 155.378906 183.113281 L 155.679688 182.929688 L 155.980469 182.742188 L 156.28125 182.558594 L 156.582031 182.371094 L 156.878906 182.183594 L 158.066406 181.417969 L 158.652344 181.027344 L 159.238281 180.628906 L 159.816406 180.230469 L 160.683594 179.621094 L 161.253906 179.207031 L 161.539062 178.996094 L 161.824219 178.789062 L 162.105469 178.578125 L 162.386719 178.363281 L 162.667969 178.152344 L 162.949219 177.9375 L 163.226562 177.722656 L 163.507812 177.503906 L 163.785156 177.285156 L 164.058594 177.066406 L 164.335938 176.847656 L 165.15625 176.179688 L 165.425781 175.953125 L 165.699219 175.726562 L 165.96875 175.5 L 166.234375 175.269531 L 166.503906 175.039062 L 167.035156 174.578125 L 167.566406 174.109375 L 167.828125 173.875 L 168.089844 173.636719 L 168.347656 173.398438 L 168.609375 173.160156 L 168.867188 172.921875 L 169.382812 172.4375 L 169.636719 172.195312 L 170.398438 171.457031 L 170.648438 171.210938 L 171.148438 170.710938 L 171.394531 170.460938 L 172.132812 169.699219 L 172.375 169.445312 L 172.621094 169.1875 L 172.859375 168.933594 L 173.101562 168.675781 L 173.578125 168.152344 L 173.816406 167.894531 L 174.050781 167.628906 L 174.285156 167.367188 L 174.519531 167.101562 L 174.75 166.835938 L 174.984375 166.570312 L 175.214844 166.304688 L 175.667969 165.765625 L 175.898438 165.496094 L 176.121094 165.222656 L 176.347656 164.953125 L 176.570312 164.679688 L 176.792969 164.402344 L 177.011719 164.128906 L 177.667969 163.296875 L 177.882812 163.019531 L 178.3125 162.457031 L 178.734375 161.894531 L 178.945312 161.609375 L 179.152344 161.324219 L 179.363281 161.039062 L 179.566406 160.753906 L 179.773438 160.464844 L 179.976562 160.179688 L 180.179688 159.890625 L 180.378906 159.601562 L 180.582031 159.308594 L 180.78125 159.019531 L 181.171875 158.433594 L 181.367188 158.136719 L 181.5625 157.84375 L 182.136719 156.953125 L 182.324219 156.65625 L 182.511719 156.355469 L 182.699219 156.058594 L 183.066406 155.457031 L 183.25 155.152344 L 183.429688 154.851562 L 183.609375 154.546875 L 183.785156 154.242188 L 183.964844 153.9375 L 184.140625 153.632812 L 184.3125 153.324219 L 184.488281 153.015625 L 184.660156 152.707031 L 185.164062 151.78125 L 185.332031 151.46875 L 185.824219 150.53125 L 185.984375 150.214844 L 186.144531 149.902344 L 186.769531 148.636719 L 186.921875 148.320312 L 187.074219 148 L 187.519531 147.039062 L 187.808594 146.398438 L 187.953125 146.074219 L 188.09375 145.75 L 188.234375 145.429688 L 188.371094 145.105469 L 188.511719 144.777344 L 188.648438 144.453125 L 188.78125 144.128906 L 189.046875 143.472656 L 189.433594 142.488281 L 189.558594 142.160156 L 189.683594 141.828125 L 189.808594 141.5 L 190.171875 140.503906 L 190.40625 139.839844 L 190.519531 139.503906 L 190.632812 139.171875 L 190.746094 138.835938 L 190.964844 138.164062 L 191.070312 137.828125 L 191.179688 137.492188 L 191.28125 137.15625 L 191.386719 136.820312 L 191.589844 136.140625 L 191.6875 135.804688 L 191.785156 135.464844 L 191.878906 135.125 L 191.976562 134.785156 L 192.070312 134.445312 L 192.160156 134.105469 L 192.25 133.761719 L 192.339844 133.421875 L 192.425781 133.078125 L 192.511719 132.738281 L 192.597656 132.394531 L 192.761719 131.707031 L 192.996094 130.675781 L 193.144531 129.988281 L 193.21875 129.640625 L 193.289062 129.296875 L 193.355469 128.949219 L 193.425781 128.605469 L 193.492188 128.257812 L 193.554688 127.910156 L 193.621094 127.5625 L 193.683594 127.214844 L 193.859375 126.171875 L 194.023438 125.128906 L 194.074219 124.777344 L 194.125 124.429688 L 194.171875 124.078125 L 194.21875 123.730469 L 194.265625 123.378906 L 194.308594 123.03125 L 194.351562 122.679688 L 194.390625 122.328125 L 194.429688 121.980469 L 194.46875 121.628906 L 194.574219 120.574219 L 194.636719 119.871094 L 194.71875 118.816406 L 194.765625 118.113281 L 194.785156 117.761719 L 194.804688 117.40625 L 194.824219 117.054688 L 194.871094 116 L 194.882812 115.644531 L 194.894531 115.292969 L 194.902344 114.941406 L 194.910156 114.585938 L 194.914062 114.234375 L 194.921875 113.882812 L 194.921875 113.527344 L 194.925781 113.175781 L 194.925781 112.824219 L 194.921875 112.472656 L 194.921875 112.117188 L 194.914062 111.765625 L 194.910156 111.414062 L 194.902344 111.058594 L 194.894531 110.707031 L 194.882812 110.355469 L 194.871094 110 L 194.824219 108.945312 L 194.804688 108.59375 L 194.785156 108.238281 L 194.765625 107.886719 L 194.71875 107.183594 L 194.636719 106.128906 L 194.574219 105.425781 L 194.46875 104.371094 L 194.429688 104.019531 L 194.390625 103.671875 L 194.351562 103.320312 L 194.308594 102.96875 L 194.265625 102.621094 L 194.21875 102.269531 L 194.171875 101.921875 L 194.125 101.570312 L 194.074219 101.222656 L 194.023438 100.871094 L 193.859375 99.828125 L 193.683594 98.785156 L 193.621094 98.4375 L 193.554688 98.089844 L 193.492188 97.742188 L 193.425781 97.394531 L 193.355469 97.050781 L 193.289062 96.703125 L 193.21875 96.359375 L 193.144531 96.011719 L 192.996094 95.324219 L 192.761719 94.292969 L 192.597656 93.605469 L 192.511719 93.261719 L 192.425781 92.921875 L 192.339844 92.578125 L 192.25 92.238281 L 192.160156 91.894531 L 192.070312 91.554688 L 191.976562 91.214844 L 191.878906 90.875 L 191.785156 90.535156 L 191.6875 90.195312 L 191.589844 89.859375 L 191.386719 89.179688 L 191.28125 88.84375 L 191.179688 88.507812 L 191.070312 88.171875 L 190.964844 87.835938 L 190.746094 87.164062 L 190.632812 86.828125 L 190.519531 86.496094 L 190.40625 86.160156 L 190.171875 85.496094 L 189.808594 84.5 L 189.683594 84.171875 L 189.558594 83.839844 L 189.433594 83.511719 L 189.046875 82.527344 L 188.78125 81.871094 L 188.648438 81.546875 L 188.511719 81.222656 L 188.371094 80.894531 L 188.234375 80.570312 L 188.09375 80.25 L 187.953125 79.925781 L 187.808594 79.601562 L 187.519531 78.960938 L 187.074219 78 L 186.921875 77.679688 L 186.769531 77.363281 L 186.144531 76.097656 L 185.984375 75.785156 L 185.824219 75.46875 L 185.332031 74.53125 L 185.164062 74.21875 L 184.660156 73.292969 L 184.488281 72.984375 L 184.3125 72.675781 L 184.140625 72.367188 L 183.964844 72.0625 L 183.785156 71.757812 L 183.609375 71.453125 L 183.429688 71.148438 L 183.25 70.847656 L 183.066406 70.542969 L 182.699219 69.941406 L 182.511719 69.644531 L 182.324219 69.34375 L 182.136719 69.046875 L 181.5625 68.15625 L 181.367188 67.863281 L 181.171875 67.566406 L 180.78125 66.980469 L 180.582031 66.691406 L 180.378906 66.398438 L 180.179688 66.109375 L 179.976562 65.820312 L 179.773438 65.535156 L 179.566406 65.246094 L 179.363281 64.960938 L 179.152344 64.675781 L 178.945312 64.390625 L 178.734375 64.105469 L 178.3125 63.542969 L 177.882812 62.980469 L 177.667969 62.703125 L 177.011719 61.871094 L 176.792969 61.597656 L 176.570312 61.320312 L 176.347656 61.046875 L 176.121094 60.777344 L 175.898438 60.503906 L 175.667969 60.234375 L 175.214844 59.695312 L 174.984375 59.429688 L 174.75 59.164062 L 174.519531 58.898438 L 174.285156 58.632812 L 174.050781 58.371094 L 173.816406 58.105469 L 173.578125 57.847656 L 173.101562 57.324219 L 172.859375 57.066406 L 172.621094 56.8125 L 172.375 56.554688 L 172.132812 56.300781 L 171.394531 55.539062 L 171.148438 55.289062 L 170.648438 54.789062 L 170.398438 54.542969 L 169.636719 53.804688 L 169.382812 53.5625 L 168.867188 53.078125 L 168.609375 52.839844 L 168.347656 52.601562 L 168.089844 52.363281 L 167.828125 52.125 L 167.566406 51.890625 L 167.035156 51.421875 L 166.503906 50.960938 L 166.234375 50.730469 L 165.96875 50.5 L 165.699219 50.273438 L 165.425781 50.046875 L 165.15625 49.820312 L 164.335938 49.152344 L 164.058594 48.933594 L 163.785156 48.714844 L 163.507812 48.496094 L 163.226562 48.277344 L 162.949219 48.0625 L 162.667969 47.847656 L 162.386719 47.636719 L 162.105469 47.421875 L 161.824219 47.210938 L 161.539062 47.003906 L 161.253906 46.792969 L 160.683594 46.378906 L 159.816406 45.769531 L 159.238281 45.371094 L 158.652344 44.972656 L 158.066406 44.582031 L 156.878906 43.816406 L 156.582031 43.628906 L 156.28125 43.441406 L 155.980469 43.257812 L 155.679688 43.070312 L 155.378906 42.886719 L 155.078125 42.707031 L 154.46875 42.347656 L 154.167969 42.167969 L 153.859375 41.992188 L 153.554688 41.816406 L 153.246094 41.644531 L 152.941406 41.46875 L 152.632812 41.300781 L 152.324219 41.128906 L 152.011719 40.960938 L 151.703125 40.792969 L 151.390625 40.625 L 151.078125 40.460938 L 150.765625 40.300781 L 150.453125 40.136719 L 150.136719 39.976562 L 149.824219 39.816406 L 148.875 39.347656 L 148.558594 39.195312 L 148.238281 39.042969 L 147.921875 38.890625 L 146.960938 38.445312 L 146.636719 38.300781 L 146.316406 38.15625 L 145.992188 38.011719 L 145.671875 37.871094 L 145.347656 37.730469 L 144.699219 37.457031 L 144.371094 37.320312 L 144.046875 37.183594 L 143.71875 37.050781 L 143.390625 36.921875 L 143.0625 36.789062 L 142.734375 36.660156 L 142.078125 36.410156 L 141.414062 36.160156 L 141.085938 36.039062 L 140.753906 35.917969 L 140.421875 35.800781 L 140.085938 35.683594 L 139.753906 35.566406 L 139.421875 35.453125 L 139.085938 35.339844 L 138.753906 35.226562 L 138.082031 35.007812 L 137.410156 34.796875 L 137.070312 34.691406 L 136.734375 34.589844 L 136.394531 34.488281 L 136.058594 34.386719 L 135.039062 34.09375 L 134.699219 34 L 134.359375 33.910156 L 134.019531 33.816406 L 133.679688 33.726562 L 133.335938 33.640625 L 132.996094 33.550781 L 132.652344 33.46875 L 132.308594 33.382812 L 131.621094 33.21875 L 130.589844 32.984375 L 129.902344 32.835938 L 129.554688 32.765625 L 129.210938 32.695312 L 128.863281 32.625 L 128.515625 32.558594 L 128.171875 32.492188 L 127.824219 32.425781 L 127.128906 32.300781 L 126.085938 32.125 L 125.390625 32.015625 L 125.039062 31.964844 L 124.691406 31.914062 L 124.339844 31.863281 L 123.992188 31.816406 L 123.640625 31.769531 L 123.292969 31.722656 L 122.941406 31.679688 L 122.59375 31.636719 L 121.539062 31.519531 L 121.1875 31.484375 L 120.839844 31.449219 L 119.785156 31.355469 L 119.082031 31.300781 L 118.726562 31.277344 L 118.375 31.25 L 118.023438 31.230469 L 117.671875 31.207031 L 117.320312 31.1875 L 116.96875 31.171875 L 116.613281 31.15625 L 115.910156 31.125 L 115.558594 31.113281 L 115.203125 31.105469 L 114.148438 31.082031 L 113.792969 31.078125 L 113.441406 31.078125 L 113.089844 31.074219 L 112.734375 31.074219 L 112.03125 31.082031 L 111.675781 31.085938 L 110.972656 31.101562 L 110.617188 31.109375 L 109.914062 31.132812 L 109.5625 31.148438 L 109.207031 31.164062 L 108.855469 31.179688 L 107.800781 31.238281 L 107.449219 31.261719 L 107.09375 31.289062 L 106.742188 31.3125 L 106.390625 31.34375 L 106.039062 31.371094 L 105.335938 31.433594 L 104.988281 31.46875 L 104.285156 31.539062 L 103.582031 31.617188 L 103.234375 31.660156 L 102.53125 31.746094 L 102.183594 31.792969 L 101.832031 31.839844 L 101.484375 31.886719 L 101.132812 31.9375 L 100.785156 31.992188 L 100.4375 32.042969 L 100.089844 32.097656 L 99.738281 32.15625 L 98.695312 32.332031 L 98.347656 32.394531 L 98.003906 32.460938 L 97.65625 32.523438 L 97.308594 32.589844 L 96.964844 32.660156 L 96.617188 32.730469 L 96.273438 32.800781 L 95.925781 32.875 L 95.238281 33.023438 L 94.550781 33.179688 L 94.207031 33.261719 L 93.863281 33.339844 L 93.519531 33.425781 L 93.175781 33.507812 L 92.835938 33.59375 L 92.492188 33.683594 L 92.152344 33.773438 L 91.808594 33.863281 L 91.46875 33.953125 L 91.128906 34.046875 L 90.789062 34.144531 L 90.449219 34.238281 L 90.113281 34.335938 L 89.433594 34.539062 L 88.761719 34.742188 L 88.421875 34.847656 L 88.085938 34.953125 L 87.414062 35.171875 L 87.082031 35.285156 L 86.746094 35.394531 L 86.414062 35.507812 L 86.078125 35.625 L 85.414062 35.859375 L 84.417969 36.222656 L 84.089844 36.347656 L 83.757812 36.472656 L 83.429688 36.597656 L 82.445312 36.984375 L 82.117188 37.117188 L 81.792969 37.253906 L 81.464844 37.386719 L 80.816406 37.660156 L 79.84375 38.082031 L 79.523438 38.226562 L 79.199219 38.371094 L 78.238281 38.816406 L 77.921875 38.964844 L 77.601562 39.117188 L 77.285156 39.269531 L 76.964844 39.425781 L 76.648438 39.582031 L 76.335938 39.738281 L 76.019531 39.894531 L 75.703125 40.054688 L 75.390625 40.21875 L 75.078125 40.378906 L 74.765625 40.542969 L 74.453125 40.710938 L 74.144531 40.875 L 73.832031 41.042969 L 73.523438 41.214844 L 73.214844 41.382812 L 72.90625 41.554688 L 72.597656 41.730469 L 71.988281 42.082031 L 71.679688 42.257812 L 71.378906 42.4375 L 70.769531 42.796875 L 69.867188 43.347656 L 69.566406 43.535156 L 68.972656 43.910156 L 68.082031 44.484375 L 67.789062 44.679688 L 67.492188 44.875 L 67.199219 45.074219 L 66.910156 45.269531 L 66.617188 45.46875 L 66.328125 45.667969 L 65.460938 46.277344 L 65.175781 46.484375 L 64.886719 46.691406 L 64.601562 46.898438 L 64.320312 47.105469 L 64.035156 47.316406 L 63.753906 47.527344 L 62.910156 48.171875 L 62.632812 48.386719 L 61.800781 49.042969 L 61.527344 49.265625 L 61.253906 49.484375 L 60.980469 49.710938 L 60.707031 49.933594 L 59.898438 50.613281 L 59.628906 50.84375 L 59.097656 51.304688 L 58.566406 51.773438 L 58.042969 52.242188 L 57.519531 52.71875 L 57.261719 52.960938 L 57.003906 53.199219 L 56.746094 53.441406 L 56.492188 53.683594 L 56.234375 53.929688 L 55.980469 54.171875 L 55.730469 54.417969 L 55.476562 54.667969 L 55.226562 54.914062 L 54.726562 55.414062 L 54.480469 55.664062 L 53.988281 56.171875 L 53.746094 56.425781 L 53.5 56.683594 L 53.261719 56.9375 L 53.019531 57.195312 L 52.777344 57.457031 L 52.539062 57.714844 L 52.304688 57.976562 L 52.066406 58.238281 L 51.832031 58.5 L 51.363281 59.03125 L 50.902344 59.5625 L 50.671875 59.832031 L 50.445312 60.101562 L 50.214844 60.371094 L 49.992188 60.640625 L 49.765625 60.914062 L 49.542969 61.183594 L 49.320312 61.457031 L 49.097656 61.734375 L 48.878906 62.007812 L 48.441406 62.5625 L 48.222656 62.84375 L 48.007812 63.121094 L 47.792969 63.402344 L 47.371094 63.964844 L 47.160156 64.25 L 46.949219 64.53125 L 46.535156 65.101562 L 46.328125 65.390625 L 46.125 65.675781 L 45.71875 66.253906 L 45.519531 66.546875 L 45.320312 66.835938 L 45.121094 67.128906 L 44.535156 68.007812 L 44.339844 68.304688 L 44.148438 68.601562 L 43.960938 68.898438 L 43.769531 69.195312 L 43.582031 69.492188 L 43.394531 69.792969 L 42.660156 70.996094 L 42.300781 71.605469 L 41.949219 72.214844 L 41.773438 72.523438 L 41.597656 72.828125 L 41.425781 73.136719 L 41.257812 73.445312 L 41.085938 73.753906 L 40.917969 74.066406 L 40.75 74.375 L 40.257812 75.3125 L 40.097656 75.625 L 39.9375 75.941406 L 39.777344 76.253906 L 39.308594 77.203125 L 39.15625 77.523438 L 39.003906 77.839844 L 38.851562 78.160156 L 38.554688 78.800781 L 38.410156 79.121094 L 38.261719 79.441406 L 38.121094 79.765625 L 37.976562 80.085938 L 37.695312 80.734375 L 37.421875 81.382812 L 37.285156 81.710938 L 37.152344 82.035156 L 36.886719 82.691406 L 36.628906 83.347656 L 36.503906 83.675781 L 36.378906 84.007812 L 36.253906 84.335938 L 36.128906 84.667969 L 36.007812 85 L 35.890625 85.332031 L 35.769531 85.664062 L 35.652344 85.996094 L 35.539062 86.328125 L 35.425781 86.664062 L 35.3125 86.996094 L 35.199219 87.332031 L 34.980469 88.003906 L 34.664062 89.011719 L 34.5625 89.351562 L 34.460938 89.6875 L 34.265625 90.367188 L 34.167969 90.703125 L 34.070312 91.042969 L 33.976562 91.382812 L 33.886719 91.726562 L 33.792969 92.066406 L 33.707031 92.40625 L 33.617188 92.75 L 33.53125 93.089844 L 33.445312 93.433594 L 33.199219 94.464844 L 33.042969 95.152344 L 32.96875 95.496094 L 32.890625 95.839844 L 32.820312 96.183594 L 32.746094 96.53125 L 32.675781 96.875 L 32.542969 97.570312 L 32.476562 97.914062 L 32.410156 98.261719 L 32.347656 98.609375 L 32.289062 98.957031 L 32.226562 99.304688 L 32.167969 99.652344 L 32.113281 100 L 32.058594 100.351562 L 32.003906 100.699219 L 31.902344 101.394531 L 31.851562 101.746094 L 31.804688 102.09375 L 31.757812 102.445312 L 31.714844 102.796875 L 31.667969 103.144531 L 31.589844 103.847656 L 31.550781 104.195312 L 31.511719 104.546875 L 31.441406 105.25 L 31.347656 106.304688 L 31.292969 107.007812 L 31.222656 108.0625 L 31.203125 108.414062 L 31.183594 108.769531 L 31.136719 109.824219 L 31.125 110.179688 L 31.101562 110.882812 L 31.09375 111.234375 L 31.085938 111.589844 L 31.078125 112.292969 L 31.074219 112.648438 L 31.074219 113 "/>
<path style="fill:none;stroke-width:1.5;stroke-linecap:round;stroke-linejoin:round;stroke:rgb(0%,0%,0%);stroke-opacity:1;stroke-miterlimit:10;" d="M 113 194.925781 L 113 31.074219 "/>
<path style="fill:none;stroke-width:1.5;stroke-linecap:round;stroke-linejoin:round;stroke:rgb(0%,0%,0%);stroke-opacity:1;stroke-miterlimit:10;" d="M 113 113 L 31.074219 113 "/>
<path style="fill:none;stroke-width:0.75;stroke-linecap:round;stroke-linejoin:round;stroke:rgb(0%,0%,0%);stroke-opacity:1;stroke-miterlimit:10;" d="M 113 113 L 194.925781 113 "/>
<path style="fill:none;stroke-width:0.75;stroke-linecap:round;stroke-linejoin:round;stroke:rgb(0%,0%,0%);stroke-opacity:1;stroke-miterlimit:10;" d="M 113 110.738281 L 194.894531 110.738281 "/>
<path style="fill:none;stroke-width:0.75;stroke-linecap:round;stroke-linejoin:round;stroke:rgb(0%,0%,0%);stroke-opacity:1;stroke-miterlimit:10;" d="M 113 108.480469 L 194.800781 108.480469 "/>
<path style="fill:none;stroke-width:0.75;stroke-linecap:round;stroke-linejoin:round;stroke:rgb(0%,0%,0%);stroke-opacity:1;stroke-miterlimit:10;" d="M 113 106.21875 L 194.644531 106.21875 "/>
<path style="fill:none;stroke-width:0.75;stroke-linecap:round;stroke-linejoin:round;stroke:rgb(0%,0%,0%);stroke-opacity:1;stroke-miterlimit:10;" d="M 113 103.960938 L 194.425781 103.960938 "/>
<path style="fill:none;stroke-width:0.75;stroke-linecap:round;stroke-linejoin:round;stroke:rgb(0%,0%,0%);stroke-opacity:1;stroke-miterlimit:10;" d="M 113 101.699219 L 194.140625 101.699219 "/>
<path style="fill:none;stroke-width:0.75;stroke-linecap:round;stroke-linejoin:round;stroke:rgb(0%,0%,0%);stroke-opacity:1;stroke-miterlimit:10;" d="M 113 99.441406 L 193.796875 99.441406 "/>
<path style="fill:none;stroke-width:0.75;stroke-linecap:round;stroke-linejoin:round;stroke:rgb(0%,0%,0%);stroke-opacity:1;stroke-miterlimit:10;" d="M 113 97.179688 L 193.382812 97.179688 "/>
<path style="fill:none;stroke-width:0.75;stroke-linecap:round;stroke-linejoin:round;stroke:rgb(0%,0%,0%);stroke-opacity:1;stroke-miterlimit:10;" d="M 113 94.921875 L 192.90625 94.921875 "/>
<path style="fill:none;stroke-width:0.75;stroke-linecap:round;stroke-linejoin:round;stroke:rgb(0%,0%,0%);stroke-opacity:1;stroke-miterlimit:10;" d="M 113 92.660156 L 192.359375 92.660156 "/>
<path style="fill:none;stroke-width:0.75;stroke-linecap:round;stroke-linejoin:round;stroke:rgb(0%,0%,0%);stroke-opacity:1;stroke-miterlimit:10;" d="M 113 90.398438 L 191.746094 90.398438 "/>
<path style="fill:none;stroke-width:0.75;stroke-linecap:round;stroke-linejoin:round;stroke:rgb(0%,0%,0%);stroke-opacity:1;stroke-miterlimit:10;" d="M 113 88.140625 L 191.0625 88.140625 "/>
<path style="fill:none;stroke-width:0.75;stroke-linecap:round;stroke-linejoin:round;stroke:rgb(0%,0%,0%);stroke-opacity:1;stroke-miterlimit:10;" d="M 113 85.878906 L 190.304688 85.878906 "/>
<path style="fill:none;stroke-width:0.75;stroke-linecap:round;stroke-linejoin:round;stroke:rgb(0%,0%,0%);stroke-opacity:1;stroke-miterlimit:10;" d="M 113 83.621094 L 189.476562 83.621094 "/>
<path style="fill:none;stroke-width:0.75;stroke-linecap:round;stroke-linejoin:round;stroke:rgb(0%,0%,0%);stroke-opacity:1;stroke-miterlimit:10;" d="M 113 81.359375 L 188.570312 81.359375 "/>
<path style="fill:none;stroke-width:0.75;stroke-linecap:round;stroke-linejoin:round;stroke:rgb(0%,0%,0%);stroke-opacity:1;stroke-miterlimit:10;" d="M 113 79.101562 L 187.582031 79.101562 "/>
<path style="fill:none;stroke-width:0.75;stroke-linecap:round;stroke-linejoin:round;stroke:rgb(0%,0%,0%);stroke-opacity:1;stroke-miterlimit:10;" d="M 113 76.839844 L 186.511719 76.839844 "/>
<path style="fill:none;stroke-width:0.75;stroke-linecap:round;stroke-linejoin:round;stroke:rgb(0%,0%,0%);stroke-opacity:1;stroke-miterlimit:10;" d="M 113 74.578125 L 185.359375 74.578125 "/>
<path style="fill:none;stroke-width:0.75;stroke-linecap:round;stroke-linejoin:round;stroke:rgb(0%,0%,0%);stroke-opacity:1;stroke-miterlimit:10;" d="M 113 72.320312 L 184.113281 72.320312 "/>
<path style="fill:none;stroke-width:0.75;stroke-linecap:round;stroke-linejoin:round;stroke:rgb(0%,0%,0%);stroke-opacity:1;stroke-miterlimit:10;" d="M 113 70.058594 L 182.769531 70.058594 "/>
<path style="fill:none;stroke-width:0.75;stroke-linecap:round;stroke-linejoin:round;stroke:rgb(0%,0%,0%);stroke-opacity:1;stroke-miterlimit:10;" d="M 113 67.800781 L 181.328125 67.800781 "/>
<path style="fill:none;stroke-width:0.75;stroke-linecap:round;stroke-linejoin:round;stroke:rgb(0%,0%,0%);stroke-opacity:1;stroke-miterlimit:10;" d="M 113 65.539062 L 179.777344 65.539062 "/>
<path style="fill:none;stroke-width:0.75;stroke-linecap:round;stroke-linejoin:round;stroke:rgb(0%,0%,0%);stroke-opacity:1;stroke-miterlimit:10;" d="M 113 63.28125 L 178.113281 63.28125 "/>
<path style="fill:none;stroke-width:0.75;stroke-linecap:round;stroke-linejoin:round;stroke:rgb(0%,0%,0%);stroke-opacity:1;stroke-miterlimit:10;" d="M 113 61.019531 L 176.324219 61.019531 "/>
<path style="fill:none;stroke-width:0.75;stroke-linecap:round;stroke-linejoin:round;stroke:rgb(0%,0%,0%);stroke-opacity:1;stroke-miterlimit:10;" d="M 113 58.761719 L 174.398438 58.761719 "/>
<path style="fill:none;stroke-width:0.75;stroke-linecap:round;stroke-linejoin:round;stroke:rgb(0%,0%,0%);stroke-opacity:1;stroke-miterlimit:10;" d="M 113 56.5 L 172.324219 56.5 "/>
<path style="fill:none;stroke-width:0.75;stroke-linecap:round;stroke-linejoin:round;stroke:rgb(0%,0%,0%);stroke-opacity:1;stroke-miterlimit:10;" d="M 113 54.238281 L 170.085938 54.238281 "/>
<path style="fill:none;stroke-width:0.75;stroke-linecap:round;stroke-linejoin:round;stroke:rgb(0%,0%,0%);stroke-opacity:1;stroke-miterlimit:10;" d="M 113 51.980469 L 167.664062 51.980469 "/>
<path style="fill:none;stroke-width:0.75;stroke-linecap:round;stroke-linejoin:round;stroke:rgb(0%,0%,0%);stroke-opacity:1;stroke-miterlimit:10;" d="M 113 49.71875 L 165.03125 49.71875 "/>
<path style="fill:none;stroke-width:0.75;stroke-linecap:round;stroke-linejoin:round;stroke:rgb(0%,0%,0%);stroke-opacity:1;stroke-miterlimit:10;" d="M 113 47.460938 L 162.15625 47.460938 "/>
<path style="fill:none;stroke-width:0.75;stroke-linecap:round;stroke-linejoin:round;stroke:rgb(0%,0%,0%);stroke-opacity:1;stroke-miterlimit:10;" d="M 113 45.199219 L 158.988281 45.199219 "/>
<path style="fill:none;stroke-width:0.75;stroke-linecap:round;stroke-linejoin:round;stroke:rgb(0%,0%,0%);stroke-opacity:1;stroke-miterlimit:10;" d="M 113 42.941406 L 155.464844 42.941406 "/>
<path style="fill:none;stroke-width:0.75;stroke-linecap:round;stroke-linejoin:round;stroke:rgb(0%,0%,0%);stroke-opacity:1;stroke-miterlimit:10;" d="M 113 40.679688 L 151.492188 40.679688 "/>
<path style="fill:none;stroke-width:0.75;stroke-linecap:round;stroke-linejoin:round;stroke:rgb(0%,0%,0%);stroke-opacity:1;stroke-miterlimit:10;" d="M 113 38.421875 L 146.90625 38.421875 "/>
<path style="fill:none;stroke-width:0.75;stroke-linecap:round;stroke-linejoin:round;stroke:rgb(0%,0%,0%);stroke-opacity:1;stroke-miterlimit:10;" d="M 113 36.160156 L 141.414062 36.160156 "/>
<path style="fill:none;stroke-width:0.75;stroke-linecap:round;stroke-linejoin:round;stroke:rgb(0%,0%,0%);stroke-opacity:1;stroke-miterlimit:10;" d="M 113 33.898438 L 134.328125 33.898438 "/>
<path style="fill:none;stroke-width:0.75;stroke-linecap:round;stroke-linejoin:round;stroke:rgb(0%,0%,0%);stroke-opacity:1;stroke-miterlimit:10;" d="M 113 31.640625 L 122.605469 31.640625 "/>
<path style="fill:none;stroke-width:0.75;stroke-linecap:round;stroke-linejoin:round;stroke:rgb(0%,0%,0%);stroke-opacity:1;stroke-miterlimit:10;" d="M 113 115.261719 L 194.894531 115.261719 "/>
<path style="fill:none;stroke-width:0.75;stroke-linecap:round;stroke-linejoin:round;stroke:rgb(0%,0%,0%);stroke-opacity:1;stroke-miterlimit:10;" d="M 113 117.519531 L 194.800781 117.519531 "/>
<path style="fill:none;stroke-width:0.75;stroke-linecap:round;stroke-linejoin:round;stroke:rgb(0%,0%,0%);stroke-opacity:1;stroke-miterlimit:10;" d="M 113 119.78125 L 194.644531 119.78125 "/>
<path style="fill:none;stroke-width:0.75;stroke-linecap:round;stroke-linejoin:round;stroke:rgb(0%,0%,0%);stroke-opacity:1;stroke-miterlimit:10;" d="M 113 122.039062 L 194.425781 122.039062 "/>
<path style="fill:none;stroke-width:0.75;stroke-linecap:round;stroke-linejoin:round;stroke:rgb(0%,0%,0%);stroke-opacity:1;stroke-miterlimit:10;" d="M 113 124.300781 L 194.140625 124.300781 "/>
<path style="fill:none;stroke-width:0.75;stroke-linecap:round;stroke-linejoin:round;stroke:rgb(0%,0%,0%);stroke-opacity:1;stroke-miterlimit:10;" d="M 113 126.558594 L 193.796875 126.558594 "/>
<path style="fill:none;stroke-width:0.75;stroke-linecap:round;stroke-linejoin:round;stroke:rgb(0%,0%,0%);stroke-opacity:1;stroke-miterlimit:10;" d="M 113 128.820312 L 193.382812 128.820312 "/>
<path style="fill:none;stroke-width:0.75;stroke-linecap:round;stroke-linejoin:round;stroke:rgb(0%,0%,0%);stroke-opacity:1;stroke-miterlimit:10;" d="M 113 131.078125 L 192.90625 131.078125 "/>
<path style="fill:none;stroke-width:0.75;stroke-linecap:round;stroke-linejoin:round;stroke:rgb(0%,0%,0%);stroke-opacity:1;stroke-miterlimit:10;" d="M 113 133.339844 L 192.359375 133.339844 "/>
<path style="fill:none;stroke-width:0.75;stroke-linecap:round;stroke-linejoin:round;stroke:rgb(0%,0%,0%);stroke-opacity:1;stroke-miterlimit:10;" d="M 113 135.601562 L 191.746094 135.601562 "/>
<path style="fill:none;stroke-width:0.75;stroke-linecap:round;stroke-linejoin:round;stroke:rgb(0%,0%,0%);stroke-opacity:1;stroke-miterlimit:10;" d="M 113 137.859375 L 191.0625 137.859375 "/>
<path style="fill:none;stroke-width:0.75;stroke-linecap:round;stroke-linejoin:round;stroke:rgb(0%,0%,0%);stroke-opacity:1;stroke-miterlimit:10;" d="M 113 140.121094 L 190.304688 140.121094 "/>
<path style="fill:none;stroke-width:0.75;stroke-linecap:round;stroke-linejoin:round;stroke:rgb(0%,0%,0%);stroke-opacity:1;stroke-miterlimit:10;" d="M 113 142.378906 L 189.476562 142.378906 "/>
<path style="fill:none;stroke-width:0.75;stroke-linecap:round;stroke-linejoin:round;stroke:rgb(0%,0%,0%);stroke-opacity:1;stroke-miterlimit:10;" d="M 113 144.640625 L 188.570312 144.640625 "/>
<path style="fill:none;stroke-width:0.75;stroke-linecap:round;stroke-linejoin:round;stroke:rgb(0%,0%,0%);stroke-opacity:1;stroke-miterlimit:10;" d="M 113 146.898438 L 187.582031 146.898438 "/>
<path style="fill:none;stroke-width:0.75;stroke-linecap:round;stroke-linejoin:round;stroke:rgb(0%,0%,0%);stroke-opacity:1;stroke-miterlimit:10;" d="M 113 149.160156 L 186.511719 149.160156 "/>
<path style="fill:none;stroke-width:0.75;stroke-linecap:round;stroke-linejoin:round;stroke:rgb(0%,0%,0%);stroke-opacity:1;stroke-miterlimit:10;" d="M 113 151.421875 L 185.359375 151.421875 "/>
<path style="fill:none;stroke-width:0.75;stroke-linecap:round;stroke-linejoin:round;stroke:rgb(0%,0%,0%);stroke-opacity:1;stroke-miterlimit:10;" d="M 113 153.679688 L 184.113281 153.679688 "/>
<path style="fill:none;stroke-width:0.75;stroke-linecap:round;stroke-linejoin:round;stroke:rgb(0%,0%,0%);stroke-opacity:1;stroke-miterlimit:10;" d="M 113 155.941406 L 182.769531 155.941406 "/>
<path style="fill:none;stroke-width:0.75;stroke-linecap:round;stroke-linejoin:round;stroke:rgb(0%,0%,0%);stroke-opacity:1;stroke-miterlimit:10;" d="M 113 158.199219 L 181.328125 158.199219 "/>
<path style="fill:none;stroke-width:0.75;stroke-linecap:round;stroke-linejoin:round;stroke:rgb(0%,0%,0%);stroke-opacity:1;stroke-miterlimit:10;" d="M 113 160.460938 L 179.777344 160.460938 "/>
<path style="fill:none;stroke-width:0.75;stroke-linecap:round;stroke-linejoin:round;stroke:rgb(0%,0%,0%);stroke-opacity:1;stroke-miterlimit:10;" d="M 113 162.71875 L 178.113281 162.71875 "/>
<path style="fill:none;stroke-width:0.75;stroke-linecap:round;stroke-linejoin:round;stroke:rgb(0%,0%,0%);stroke-opacity:1;stroke-miterlimit:10;" d="M 113 164.980469 L 176.324219 164.980469 "/>
<path style="fill:none;stroke-width:0.75;stroke-linecap:round;stroke-linejoin:round;stroke:rgb(0%,0%,0%);stroke-opacity:1;stroke-miterlimit:10;" d="M 113 167.238281 L 174.398438 167.238281 "/>
<path style="fill:none;stroke-width:0.75;stroke-linecap:round;stroke-linejoin:round;stroke:rgb(0%,0%,0%);stroke-opacity:1;stroke-miterlimit:10;" d="M 113 169.5 L 172.324219 169.5 "/>
<path style="fill:none;stroke-width:0.75;stroke-linecap:round;stroke-linejoin:round;stroke:rgb(0%,0%,0%);stroke-opacity:1;stroke-miterlimit:10;" d="M 113 171.761719 L 170.085938 171.761719 "/>
<path style="fill:none;stroke-width:0.75;stroke-linecap:round;stroke-linejoin:round;stroke:rgb(0%,0%,0%);stroke-opacity:1;stroke-miterlimit:10;" d="M 113 174.019531 L 167.664062 174.019531 "/>
<path style="fill:none;stroke-width:0.75;stroke-linecap:round;stroke-linejoin:round;stroke:rgb(0%,0%,0%);stroke-opacity:1;stroke-miterlimit:10;" d="M 113 176.28125 L 165.03125 176.28125 "/>
<path style="fill:none;stroke-width:0.75;stroke-linecap:round;stroke-linejoin:round;stroke:rgb(0%,0%,0%);stroke-opacity:1;stroke-miterlimit:10;" d="M 113 178.539062 L 162.15625 178.539062 "/>
<path style="fill:none;stroke-width:0.75;stroke-linecap:round;stroke-linejoin:round;stroke:rgb(0%,0%,0%);stroke-opacity:1;stroke-miterlimit:10;" d="M 113 180.800781 L 158.988281 180.800781 "/>
<path style="fill:none;stroke-width:0.75;stroke-linecap:round;stroke-linejoin:round;stroke:rgb(0%,0%,0%);stroke-opacity:1;stroke-miterlimit:10;" d="M 113 183.058594 L 155.464844 183.058594 "/>
<path style="fill:none;stroke-width:0.75;stroke-linecap:round;stroke-linejoin:round;stroke:rgb(0%,0%,0%);stroke-opacity:1;stroke-miterlimit:10;" d="M 113 185.320312 L 151.492188 185.320312 "/>
<path style="fill:none;stroke-width:0.75;stroke-linecap:round;stroke-linejoin:round;stroke:rgb(0%,0%,0%);stroke-opacity:1;stroke-miterlimit:10;" d="M 113 187.578125 L 146.90625 187.578125 "/>
<path style="fill:none;stroke-width:0.75;stroke-linecap:round;stroke-linejoin:round;stroke:rgb(0%,0%,0%);stroke-opacity:1;stroke-miterlimit:10;" d="M 113 189.839844 L 141.414062 189.839844 "/>
<path style="fill:none;stroke-width:0.75;stroke-linecap:round;stroke-linejoin:round;stroke:rgb(0%,0%,0%);stroke-opacity:1;stroke-miterlimit:10;" d="M 113 192.101562 L 134.328125 192.101562 "/>
<path style="fill:none;stroke-width:0.75;stroke-linecap:round;stroke-linejoin:round;stroke:rgb(0%,0%,0%);stroke-opacity:1;stroke-miterlimit:10;" d="M 113 194.359375 L 122.605469 194.359375 "/>
<path style="fill:none;stroke-width:0.75;stroke-linecap:round;stroke-linejoin:round;stroke:rgb(0%,0%,0%);stroke-opacity:1;stroke-miterlimit:10;" d="M 113 113 L 42.050781 153.960938 "/>
<path style="fill:none;stroke-width:0.75;stroke-linecap:round;stroke-linejoin:round;stroke:rgb(0%,0%,0%);stroke-opacity:1;stroke-miterlimit:10;" d="M 113 113 L 42.050781 72.039062 "/>
<path style="fill:none;stroke-width:0.75;stroke-linecap:round;stroke-linejoin:round;stroke:rgb(0%,0%,0%);stroke-opacity:1;stroke-miterlimit:10;" d="M 113 110.738281 L 43.050781 70.355469 "/>
<path style="fill:none;stroke-width:0.75;stroke-linecap:round;stroke-linejoin:round;stroke:rgb(0%,0%,0%);stroke-opacity:1;stroke-miterlimit:10;" d="M 109.085938 113 L 41.09375 152.253906 "/>
<path style="fill:none;stroke-width:0.75;stroke-linecap:round;stroke-linejoin:round;stroke:rgb(0%,0%,0%);stroke-opacity:1;stroke-miterlimit:10;" d="M 113 108.480469 L 44.089844 68.695312 "/>
<path style="fill:none;stroke-width:0.75;stroke-linecap:round;stroke-linejoin:round;stroke:rgb(0%,0%,0%);stroke-opacity:1;stroke-miterlimit:10;" d="M 105.171875 113 L 40.175781 150.527344 "/>
<path style="fill:none;stroke-width:0.75;stroke-linecap:round;stroke-linejoin:round;stroke:rgb(0%,0%,0%);stroke-opacity:1;stroke-miterlimit:10;" d="M 113 106.21875 L 45.167969 67.058594 "/>
<path style="fill:none;stroke-width:0.75;stroke-linecap:round;stroke-linejoin:round;stroke:rgb(0%,0%,0%);stroke-opacity:1;stroke-miterlimit:10;" d="M 101.257812 113 L 39.296875 148.773438 "/>
<path style="fill:none;stroke-width:0.75;stroke-linecap:round;stroke-linejoin:round;stroke:rgb(0%,0%,0%);stroke-opacity:1;stroke-miterlimit:10;" d="M 113 103.960938 L 46.289062 65.445312 "/>
<path style="fill:none;stroke-width:0.75;stroke-linecap:round;stroke-linejoin:round;stroke:rgb(0%,0%,0%);stroke-opacity:1;stroke-miterlimit:10;" d="M 97.34375 113 L 38.460938 146.996094 "/>
<path style="fill:none;stroke-width:0.75;stroke-linecap:round;stroke-linejoin:round;stroke:rgb(0%,0%,0%);stroke-opacity:1;stroke-miterlimit:10;" d="M 113 101.699219 L 47.453125 63.855469 "/>
<path style="fill:none;stroke-width:0.75;stroke-linecap:round;stroke-linejoin:round;stroke:rgb(0%,0%,0%);stroke-opacity:1;stroke-miterlimit:10;" d="M 93.429688 113 L 37.664062 145.195312 "/>
<path style="fill:none;stroke-width:0.75;stroke-linecap:round;stroke-linejoin:round;stroke:rgb(0%,0%,0%);stroke-opacity:1;stroke-miterlimit:10;" d="M 113 99.441406 L 48.65625 62.289062 "/>
<path style="fill:none;stroke-width:0.75;stroke-linecap:round;stroke-linejoin:round;stroke:rgb(0%,0%,0%);stroke-opacity:1;stroke-miterlimit:10;" d="M 89.511719 113 L 36.910156 143.371094 "/>
<path style="fill:none;stroke-width:0.75;stroke-linecap:round;stroke-linejoin:round;stroke:rgb(0%,0%,0%);stroke-opacity:1;stroke-miterlimit:10;" d="M 113 97.179688 L 49.898438 60.75 "/>
<path style="fill:none;stroke-width:0.75;stroke-linecap:round;stroke-linejoin:round;stroke:rgb(0%,0%,0%);stroke-opacity:1;stroke-miterlimit:10;" d="M 85.597656 113 L 36.199219 141.519531 "/>
<path style="fill:none;stroke-width:0.75;stroke-linecap:round;stroke-linejoin:round;stroke:rgb(0%,0%,0%);stroke-opacity:1;stroke-miterlimit:10;" d="M 113 94.921875 L 51.1875 59.234375 "/>
<path style="fill:none;stroke-width:0.75;stroke-linecap:round;stroke-linejoin:round;stroke:rgb(0%,0%,0%);stroke-opacity:1;stroke-miterlimit:10;" d="M 81.683594 113 L 35.53125 139.648438 "/>
<path style="fill:none;stroke-width:0.75;stroke-linecap:round;stroke-linejoin:round;stroke:rgb(0%,0%,0%);stroke-opacity:1;stroke-miterlimit:10;" d="M 113 92.660156 L 52.519531 57.742188 "/>
<path style="fill:none;stroke-width:0.75;stroke-linecap:round;stroke-linejoin:round;stroke:rgb(0%,0%,0%);stroke-opacity:1;stroke-miterlimit:10;" d="M 77.769531 113 L 34.902344 137.75 "/>
<path style="fill:none;stroke-width:0.75;stroke-linecap:round;stroke-linejoin:round;stroke:rgb(0%,0%,0%);stroke-opacity:1;stroke-miterlimit:10;" d="M 113 90.398438 L 53.890625 56.273438 "/>
<path style="fill:none;stroke-width:0.75;stroke-linecap:round;stroke-linejoin:round;stroke:rgb(0%,0%,0%);stroke-opacity:1;stroke-miterlimit:10;" d="M 73.855469 113 L 34.320312 135.828125 "/>
<path style="fill:none;stroke-width:0.75;stroke-linecap:round;stroke-linejoin:round;stroke:rgb(0%,0%,0%);stroke-opacity:1;stroke-miterlimit:10;" d="M 113 88.140625 L 55.308594 54.832031 "/>
<path style="fill:none;stroke-width:0.75;stroke-linecap:round;stroke-linejoin:round;stroke:rgb(0%,0%,0%);stroke-opacity:1;stroke-miterlimit:10;" d="M 69.941406 113 L 33.78125 133.878906 "/>
<path style="fill:none;stroke-width:0.75;stroke-linecap:round;stroke-linejoin:round;stroke:rgb(0%,0%,0%);stroke-opacity:1;stroke-miterlimit:10;" d="M 113 85.878906 L 56.773438 53.417969 "/>
<path style="fill:none;stroke-width:0.75;stroke-linecap:round;stroke-linejoin:round;stroke:rgb(0%,0%,0%);stroke-opacity:1;stroke-miterlimit:10;" d="M 66.027344 113 L 33.285156 131.902344 "/>
<path style="fill:none;stroke-width:0.75;stroke-linecap:round;stroke-linejoin:round;stroke:rgb(0%,0%,0%);stroke-opacity:1;stroke-miterlimit:10;" d="M 113 83.621094 L 58.28125 52.027344 "/>
<path style="fill:none;stroke-width:0.75;stroke-linecap:round;stroke-linejoin:round;stroke:rgb(0%,0%,0%);stroke-opacity:1;stroke-miterlimit:10;" d="M 62.113281 113 L 32.835938 129.902344 "/>
<path style="fill:none;stroke-width:0.75;stroke-linecap:round;stroke-linejoin:round;stroke:rgb(0%,0%,0%);stroke-opacity:1;stroke-miterlimit:10;" d="M 113 81.359375 L 59.835938 50.667969 "/>
<path style="fill:none;stroke-width:0.75;stroke-linecap:round;stroke-linejoin:round;stroke:rgb(0%,0%,0%);stroke-opacity:1;stroke-miterlimit:10;" d="M 58.199219 113 L 32.4375 127.875 "/>
<path style="fill:none;stroke-width:0.75;stroke-linecap:round;stroke-linejoin:round;stroke:rgb(0%,0%,0%);stroke-opacity:1;stroke-miterlimit:10;" d="M 113 79.101562 L 61.441406 49.332031 "/>
<path style="fill:none;stroke-width:0.75;stroke-linecap:round;stroke-linejoin:round;stroke:rgb(0%,0%,0%);stroke-opacity:1;stroke-miterlimit:10;" d="M 54.285156 113 L 32.082031 125.816406 "/>
<path style="fill:none;stroke-width:0.75;stroke-linecap:round;stroke-linejoin:round;stroke:rgb(0%,0%,0%);stroke-opacity:1;stroke-miterlimit:10;" d="M 113 76.839844 L 63.097656 48.027344 "/>
<path style="fill:none;stroke-width:0.75;stroke-linecap:round;stroke-linejoin:round;stroke:rgb(0%,0%,0%);stroke-opacity:1;stroke-miterlimit:10;" d="M 50.367188 113 L 31.78125 123.730469 "/>
<path style="fill:none;stroke-width:0.75;stroke-linecap:round;stroke-linejoin:round;stroke:rgb(0%,0%,0%);stroke-opacity:1;stroke-miterlimit:10;" d="M 113 74.578125 L 64.800781 46.753906 "/>
<path style="fill:none;stroke-width:0.75;stroke-linecap:round;stroke-linejoin:round;stroke:rgb(0%,0%,0%);stroke-opacity:1;stroke-miterlimit:10;" d="M 46.453125 113 L 31.53125 121.617188 "/>
<path style="fill:none;stroke-width:0.75;stroke-linecap:round;stroke-linejoin:round;stroke:rgb(0%,0%,0%);stroke-opacity:1;stroke-miterlimit:10;" d="M 113 72.320312 L 66.5625 45.507812 "/>
<path style="fill:none;stroke-width:0.75;stroke-linecap:round;stroke-linejoin:round;stroke:rgb(0%,0%,0%);stroke-opacity:1;stroke-miterlimit:10;" d="M 42.539062 113 L 31.332031 119.472656 "/>
<path style="fill:none;stroke-width:0.75;stroke-linecap:round;stroke-linejoin:round;stroke:rgb(0%,0%,0%);stroke-opacity:1;stroke-miterlimit:10;" d="M 113 70.058594 L 68.375 44.296875 "/>
<path style="fill:none;stroke-width:0.75;stroke-linecap:round;stroke-linejoin:round;stroke:rgb(0%,0%,0%);stroke-opacity:1;stroke-miterlimit:10;" d="M 38.625 113 L 31.1875 117.292969 "/>
<path style="fill:none;stroke-width:0.75;stroke-linecap:round;stroke-linejoin:round;stroke:rgb(0%,0%,0%);stroke-opacity:1;stroke-miterlimit:10;" d="M 113 67.800781 L 70.246094 43.117188 "/>
<path style="fill:none;stroke-width:0.75;stroke-linecap:round;stroke-linejoin:round;stroke:rgb(0%,0%,0%);stroke-opacity:1;stroke-miterlimit:10;" d="M 34.710938 113 L 31.101562 115.085938 "/>
<path style="fill:none;stroke-width:0.75;stroke-linecap:round;stroke-linejoin:round;stroke:rgb(0%,0%,0%);stroke-opacity:1;stroke-miterlimit:10;" d="M 113 65.539062 L 72.175781 41.96875 "/>
<path style="fill:none;stroke-width:0.75;stroke-linecap:round;stroke-linejoin:round;stroke:rgb(0%,0%,0%);stroke-opacity:1;stroke-miterlimit:10;" d="M 113 63.28125 L 74.171875 40.863281 "/>
<path style="fill:none;stroke-width:0.75;stroke-linecap:round;stroke-linejoin:round;stroke:rgb(0%,0%,0%);stroke-opacity:1;stroke-miterlimit:10;" d="M 113 61.019531 L 76.230469 39.789062 "/>
<path style="fill:none;stroke-width:0.75;stroke-linecap:round;stroke-linejoin:round;stroke:rgb(0%,0%,0%);stroke-opacity:1;stroke-miterlimit:10;" d="M 113 58.761719 L 78.359375 38.757812 "/>
<path style="fill:none;stroke-width:0.75;stroke-linecap:round;stroke-linejoin:round;stroke:rgb(0%,0%,0%);stroke-opacity:1;stroke-miterlimit:10;" d="M 113 56.5 L 80.5625 37.769531 "/>
<path style="fill:none;stroke-width:0.75;stroke-linecap:round;stroke-linejoin:round;stroke:rgb(0%,0%,0%);stroke-opacity:1;stroke-miterlimit:10;" d="M 113 54.238281 L 82.839844 36.828125 "/>
<path style="fill:none;stroke-width:0.75;stroke-linecap:round;stroke-linejoin:round;stroke:rgb(0%,0%,0%);stroke-opacity:1;stroke-miterlimit:10;" d="M 113 51.980469 L 85.207031 35.933594 "/>
<path style="fill:none;stroke-width:0.75;stroke-linecap:round;stroke-linejoin:round;stroke:rgb(0%,0%,0%);stroke-opacity:1;stroke-miterlimit:10;" d="M 113 49.71875 L 87.664062 35.089844 "/>
<path style="fill:none;stroke-width:0.75;stroke-linecap:round;stroke-linejoin:round;stroke:rgb(0%,0%,0%);stroke-opacity:1;stroke-miterlimit:10;" d="M 113 47.460938 L 90.21875 34.304688 "/>
<path style="fill:none;stroke-width:0.75;stroke-linecap:round;stroke-linejoin:round;stroke:rgb(0%,0%,0%);stroke-opacity:1;stroke-miterlimit:10;" d="M 113 45.199219 L 92.878906 33.582031 "/>
<path style="fill:none;stroke-width:0.75;stroke-linecap:round;stroke-linejoin:round;stroke:rgb(0%,0%,0%);stroke-opacity:1;stroke-miterlimit:10;" d="M 113 42.941406 L 95.664062 32.929688 "/>
<path style="fill:none;stroke-width:0.75;stroke-linecap:round;stroke-linejoin:round;stroke:rgb(0%,0%,0%);stroke-opacity:1;stroke-miterlimit:10;" d="M 113 40.679688 L 98.578125 32.355469 "/>
<path style="fill:none;stroke-width:0.75;stroke-linecap:round;stroke-linejoin:round;stroke:rgb(0%,0%,0%);stroke-opacity:1;stroke-miterlimit:10;" d="M 113 38.421875 L 101.648438 31.867188 "/>
<path style="fill:none;stroke-width:0.75;stroke-linecap:round;stroke-linejoin:round;stroke:rgb(0%,0%,0%);stroke-opacity:1;stroke-miterlimit:10;" d="M 113 36.160156 L 104.890625 31.476562 "/>
<path style="fill:none;stroke-width:0.75;stroke-linecap:round;stroke-linejoin:round;stroke:rgb(0%,0%,0%);stroke-opacity:1;stroke-miterlimit:10;" d="M 113 33.898438 L 108.335938 31.207031 "/>
<path style="fill:none;stroke-width:0.75;stroke-linecap:round;stroke-linejoin:round;stroke:rgb(0%,0%,0%);stroke-opacity:1;stroke-miterlimit:10;" d="M 113 31.640625 L 112.03125 31.082031 "/>
<path style="fill:none;stroke-width:0.75;stroke-linecap:round;stroke-linejoin:round;stroke:rgb(0%,0%,0%);stroke-opacity:1;stroke-miterlimit:10;" d="M 113 115.261719 L 43.050781 155.644531 "/>
<path style="fill:none;stroke-width:0.75;stroke-linecap:round;stroke-linejoin:round;stroke:rgb(0%,0%,0%);stroke-opacity:1;stroke-miterlimit:10;" d="M 109.085938 113 L 41.09375 73.746094 "/>
<path style="fill:none;stroke-width:0.75;stroke-linecap:round;stroke-linejoin:round;stroke:rgb(0%,0%,0%);stroke-opacity:1;stroke-miterlimit:10;" d="M 113 117.519531 L 44.089844 157.304688 "/>
<path style="fill:none;stroke-width:0.75;stroke-linecap:round;stroke-linejoin:round;stroke:rgb(0%,0%,0%);stroke-opacity:1;stroke-miterlimit:10;" d="M 105.171875 113 L 40.175781 75.472656 "/>
<path style="fill:none;stroke-width:0.75;stroke-linecap:round;stroke-linejoin:round;stroke:rgb(0%,0%,0%);stroke-opacity:1;stroke-miterlimit:10;" d="M 113 119.78125 L 45.167969 158.941406 "/>
<path style="fill:none;stroke-width:0.75;stroke-linecap:round;stroke-linejoin:round;stroke:rgb(0%,0%,0%);stroke-opacity:1;stroke-miterlimit:10;" d="M 101.257812 113 L 39.296875 77.226562 "/>
<path style="fill:none;stroke-width:0.75;stroke-linecap:round;stroke-linejoin:round;stroke:rgb(0%,0%,0%);stroke-opacity:1;stroke-miterlimit:10;" d="M 113 122.039062 L 46.289062 160.554688 "/>
<path style="fill:none;stroke-width:0.75;stroke-linecap:round;stroke-linejoin:round;stroke:rgb(0%,0%,0%);stroke-opacity:1;stroke-miterlimit:10;" d="M 97.34375 113 L 38.460938 79.003906 "/>
<path style="fill:none;stroke-width:0.75;stroke-linecap:round;stroke-linejoin:round;stroke:rgb(0%,0%,0%);stroke-opacity:1;stroke-miterlimit:10;" d="M 113 124.300781 L 47.453125 162.144531 "/>
<path style="fill:none;stroke-width:0.75;stroke-linecap:round;stroke-linejoin:round;stroke:rgb(0%,0%,0%);stroke-opacity:1;stroke-miterlimit:10;" d="M 93.429688 113 L 37.664062 80.804688 "/>
<path style="fill:none;stroke-width:0.75;stroke-linecap:round;stroke-linejoin:round;stroke:rgb(0%,0%,0%);stroke-opacity:1;stroke-miterlimit:10;" d="M 113 126.558594 L 48.65625 163.710938 "/>
<path style="fill:none;stroke-width:0.75;stroke-linecap:round;stroke-linejoin:round;stroke:rgb(0%,0%,0%);stroke-opacity:1;stroke-miterlimit:10;" d="M 89.511719 113 L 36.910156 82.628906 "/>
<path style="fill:none;stroke-width:0.75;stroke-linecap:round;stroke-linejoin:round;stroke:rgb(0%,0%,0%);stroke-opacity:1;stroke-miterlimit:10;" d="M 113 128.820312 L 49.898438 165.25 "/>
<path style="fill:none;stroke-width:0.75;stroke-linecap:round;stroke-linejoin:round;stroke:rgb(0%,0%,0%);stroke-opacity:1;stroke-miterlimit:10;" d="M 85.597656 113 L 36.199219 84.480469 "/>
<path style="fill:none;stroke-width:0.75;stroke-linecap:round;stroke-linejoin:round;stroke:rgb(0%,0%,0%);stroke-opacity:1;stroke-miterlimit:10;" d="M 113 131.078125 L 51.1875 166.765625 "/>
<path style="fill:none;stroke-width:0.75;stroke-linecap:round;stroke-linejoin:round;stroke:rgb(0%,0%,0%);stroke-opacity:1;stroke-miterlimit:10;" d="M 81.683594 113 L 35.53125 86.351562 "/>
<path style="fill:none;stroke-width:0.75;stroke-linecap:round;stroke-linejoin:round;stroke:rgb(0%,0%,0%);stroke-opacity:1;stroke-miterlimit:10;" d="M 113 133.339844 L 52.519531 168.257812 "/>
<path style="fill:none;stroke-width:0.75;stroke-linecap:round;stroke-linejoin:round;stroke:rgb(0%,0%,0%);stroke-opacity:1;stroke-miterlimit:10;" d="M 77.769531 113 L 34.902344 88.25 "/>
<path style="fill:none;stroke-width:0.75;stroke-linecap:round;stroke-linejoin:round;stroke:rgb(0%,0%,0%);stroke-opacity:1;stroke-miterlimit:10;" d="M 113 135.601562 L 53.890625 169.726562 "/>
<path style="fill:none;stroke-width:0.75;stroke-linecap:round;stroke-linejoin:round;stroke:rgb(0%,0%,0%);stroke-opacity:1;stroke-miterlimit:10;" d="M 73.855469 113 L 34.320312 90.171875 "/>
<path style="fill:none;stroke-width:0.75;stroke-linecap:round;stroke-linejoin:round;stroke:rgb(0%,0%,0%);stroke-opacity:1;stroke-miterlimit:10;" d="M 113 137.859375 L 55.308594 171.167969 "/>
<path style="fill:none;stroke-width:0.75;stroke-linecap:round;stroke-linejoin:round;stroke:rgb(0%,0%,0%);stroke-opacity:1;stroke-miterlimit:10;" d="M 69.941406 113 L 33.78125 92.121094 "/>
<path style="fill:none;stroke-width:0.75;stroke-linecap:round;stroke-linejoin:round;stroke:rgb(0%,0%,0%);stroke-opacity:1;stroke-miterlimit:10;" d="M 113 140.121094 L 56.773438 172.582031 "/>
<path style="fill:none;stroke-width:0.75;stroke-linecap:round;stroke-linejoin:round;stroke:rgb(0%,0%,0%);stroke-opacity:1;stroke-miterlimit:10;" d="M 66.027344 113 L 33.285156 94.097656 "/>
<path style="fill:none;stroke-width:0.75;stroke-linecap:round;stroke-linejoin:round;stroke:rgb(0%,0%,0%);stroke-opacity:1;stroke-miterlimit:10;" d="M 113 142.378906 L 58.28125 173.972656 "/>
<path style="fill:none;stroke-width:0.75;stroke-linecap:round;stroke-linejoin:round;stroke:rgb(0%,0%,0%);stroke-opacity:1;stroke-miterlimit:10;" d="M 62.113281 113 L 32.835938 96.097656 "/>
<path style="fill:none;stroke-width:0.75;stroke-linecap:round;stroke-linejoin:round;stroke:rgb(0%,0%,0%);stroke-opacity:1;stroke-miterlimit:10;" d="M 113 144.640625 L 59.835938 175.332031 "/>
<path style="fill:none;stroke-width:0.75;stroke-linecap:round;stroke-linejoin:round;stroke:rgb(0%,0%,0%);stroke-opacity:1;stroke-miterlimit:10;" d="M 58.199219 113 L 32.4375 98.125 "/>
<path style="fill:none;stroke-width:0.75;stroke-linecap:round;stroke-linejoin:round;stroke:rgb(0%,0%,0%);stroke-opacity:1;stroke-miterlimit:10;" d="M 113 146.898438 L 61.441406 176.667969 "/>
<path style="fill:none;stroke-width:0.75;stroke-linecap:round;stroke-linejoin:round;stroke:rgb(0%,0%,0%);stroke-opacity:1;stroke-miterlimit:10;" d="M 54.285156 113 L 32.082031 100.183594 "/>
<path style="fill:none;stroke-width:0.75;stroke-linecap:round;stroke-linejoin:round;stroke:rgb(0%,0%,0%);stroke-opacity:1;stroke-miterlimit:10;" d="M 113 149.160156 L 63.097656 177.972656 "/>
<path style="fill:none;stroke-width:0.75;stroke-linecap:round;stroke-linejoin:round;stroke:rgb(0%,0%,0%);stroke-opacity:1;stroke-miterlimit:10;" d="M 50.367188 113 L 31.78125 102.269531 "/>
<path style="fill:none;stroke-width:0.75;stroke-linecap:round;stroke-linejoin:round;stroke:rgb(0%,0%,0%);stroke-opacity:1;stroke-miterlimit:10;" d="M 113 151.421875 L 64.800781 179.246094 "/>
<path style="fill:none;stroke-width:0.75;stroke-linecap:round;stroke-linejoin:round;stroke:rgb(0%,0%,0%);stroke-opacity:1;stroke-miterlimit:10;" d="M 46.453125 113 L 31.53125 104.382812 "/>
<path style="fill:none;stroke-width:0.75;stroke-linecap:round;stroke-linejoin:round;stroke:rgb(0%,0%,0%);stroke-opacity:1;stroke-miterlimit:10;" d="M 113 153.679688 L 66.5625 180.492188 "/>
<path style="fill:none;stroke-width:0.75;stroke-linecap:round;stroke-linejoin:round;stroke:rgb(0%,0%,0%);stroke-opacity:1;stroke-miterlimit:10;" d="M 42.539062 113 L 31.332031 106.527344 "/>
<path style="fill:none;stroke-width:0.75;stroke-linecap:round;stroke-linejoin:round;stroke:rgb(0%,0%,0%);stroke-opacity:1;stroke-miterlimit:10;" d="M 113 155.941406 L 68.375 181.703125 "/>
<path style="fill:none;stroke-width:0.75;stroke-linecap:round;stroke-linejoin:round;stroke:rgb(0%,0%,0%);stroke-opacity:1;stroke-miterlimit:10;" d="M 38.625 113 L 31.1875 108.707031 "/>
<path style="fill:none;stroke-width:0.75;stroke-linecap:round;stroke-linejoin:round;stroke:rgb(0%,0%,0%);stroke-opacity:1;stroke-miterlimit:10;" d="M 113 158.199219 L 70.246094 182.882812 "/>
<path style="fill:none;stroke-width:0.75;stroke-linecap:round;stroke-linejoin:round;stroke:rgb(0%,0%,0%);stroke-opacity:1;stroke-miterlimit:10;" d="M 34.710938 113 L 31.101562 110.914062 "/>
<path style="fill:none;stroke-width:0.75;stroke-linecap:round;stroke-linejoin:round;stroke:rgb(0%,0%,0%);stroke-opacity:1;stroke-miterlimit:10;" d="M 113 160.460938 L 72.175781 184.03125 "/>
<path style="fill:none;stroke-width:0.75;stroke-linecap:round;stroke-linejoin:round;stroke:rgb(0%,0%,0%);stroke-opacity:1;stroke-miterlimit:10;" d="M 113 162.71875 L 74.171875 185.136719 "/>
<path style="fill:none;stroke-width:0.75;stroke-linecap:round;stroke-linejoin:round;stroke:rgb(0%,0%,0%);stroke-opacity:1;stroke-miterlimit:10;" d="M 113 164.980469 L 76.230469 186.210938 "/>
<path style="fill:none;stroke-width:0.75;stroke-linecap:round;stroke-linejoin:round;stroke:rgb(0%,0%,0%);stroke-opacity:1;stroke-miterlimit:10;" d="M 113 167.238281 L 78.359375 187.242188 "/>
<path style="fill:none;stroke-width:0.75;stroke-linecap:round;stroke-linejoin:round;stroke:rgb(0%,0%,0%);stroke-opacity:1;stroke-miterlimit:10;" d="M 113 169.5 L 80.5625 188.230469 "/>
<path style="fill:none;stroke-width:0.75;stroke-linecap:round;stroke-linejoin:round;stroke:rgb(0%,0%,0%);stroke-opacity:1;stroke-miterlimit:10;" d="M 113 171.761719 L 82.839844 189.171875 "/>
<path style="fill:none;stroke-width:0.75;stroke-linecap:round;stroke-linejoin:round;stroke:rgb(0%,0%,0%);stroke-opacity:1;stroke-miterlimit:10;" d="M 113 174.019531 L 85.207031 190.066406 "/>
<path style="fill:none;stroke-width:0.75;stroke-linecap:round;stroke-linejoin:round;stroke:rgb(0%,0%,0%);stroke-opacity:1;stroke-miterlimit:10;" d="M 113 176.28125 L 87.664062 190.910156 "/>
<path style="fill:none;stroke-width:0.75;stroke-linecap:round;stroke-linejoin:round;stroke:rgb(0%,0%,0%);stroke-opacity:1;stroke-miterlimit:10;" d="M 113 178.539062 L 90.21875 191.695312 "/>
<path style="fill:none;stroke-width:0.75;stroke-linecap:round;stroke-linejoin:round;stroke:rgb(0%,0%,0%);stroke-opacity:1;stroke-miterlimit:10;" d="M 113 180.800781 L 92.878906 192.417969 "/>
<path style="fill:none;stroke-width:0.75;stroke-linecap:round;stroke-linejoin:round;stroke:rgb(0%,0%,0%);stroke-opacity:1;stroke-miterlimit:10;" d="M 113 183.058594 L 95.664062 193.070312 "/>
<path style="fill:none;stroke-width:0.75;stroke-linecap:round;stroke-linejoin:round;stroke:rgb(0%,0%,0%);stroke-opacity:1;stroke-miterlimit:10;" d="M 113 185.320312 L 98.578125 193.644531 "/>
<path style="fill:none;stroke-width:0.75;stroke-linecap:round;stroke-linejoin:round;stroke:rgb(0%,0%,0%);stroke-opacity:1;stroke-miterlimit:10;" d="M 113 187.578125 L 101.648438 194.132812 "/>
<path style="fill:none;stroke-width:0.75;stroke-linecap:round;stroke-linejoin:round;stroke:rgb(0%,0%,0%);stroke-opacity:1;stroke-miterlimit:10;" d="M 113 189.839844 L 104.890625 194.523438 "/>
<path style="fill:none;stroke-width:0.75;stroke-linecap:round;stroke-linejoin:round;stroke:rgb(0%,0%,0%);stroke-opacity:1;stroke-miterlimit:10;" d="M 113 192.101562 L 108.335938 194.792969 "/>
<path style="fill:none;stroke-width:0.75;stroke-linecap:round;stroke-linejoin:round;stroke:rgb(0%,0%,0%);stroke-opacity:1;stroke-miterlimit:10;" d="M 113 194.359375 L 112.03125 194.917969 "/>
<path style="fill:none;stroke-width:0.75;stroke-linecap:round;stroke-linejoin:round;stroke:rgb(0%,0%,0%);stroke-opacity:1;stroke-miterlimit:10;" d="M 0 113 L 0 113.488281 L 0.00390625 113.972656 L 0.0078125 114.460938 L 0.015625 114.945312 L 0.0273438 115.433594 L 0.0390625 115.917969 L 0.0507812 116.40625 L 0.0664062 116.890625 L 0.0859375 117.378906 L 0.105469 117.863281 L 0.125 118.351562 L 0.152344 118.835938 L 0.175781 119.324219 L 0.207031 119.808594 L 0.234375 120.292969 L 0.269531 120.78125 L 0.300781 121.265625 L 0.417969 122.71875 L 0.460938 123.207031 L 0.601562 124.660156 L 0.652344 125.140625 L 0.761719 126.109375 L 0.820312 126.59375 L 0.878906 127.074219 L 0.941406 127.558594 L 1.003906 128.039062 L 1.070312 128.523438 L 1.140625 129.003906 L 1.210938 129.488281 L 1.28125 129.96875 L 1.429688 130.929688 L 1.507812 131.410156 L 1.671875 132.371094 L 1.757812 132.847656 L 1.84375 133.328125 L 1.933594 133.804688 L 2.023438 134.285156 L 2.210938 135.238281 L 2.40625 136.191406 L 2.609375 137.144531 L 2.714844 137.621094 L 2.820312 138.09375 L 2.929688 138.566406 L 3.042969 139.042969 L 3.269531 139.988281 L 3.386719 140.460938 L 3.507812 140.933594 L 3.628906 141.402344 L 3.75 141.875 L 3.875 142.34375 L 4.003906 142.8125 L 4.132812 143.285156 L 4.265625 143.75 L 4.398438 144.21875 L 4.535156 144.6875 L 4.671875 145.152344 L 4.8125 145.621094 L 5.09375 146.550781 L 5.242188 147.015625 L 5.386719 147.480469 L 5.539062 147.941406 L 5.691406 148.40625 L 5.84375 148.867188 L 6.15625 149.789062 L 6.316406 150.246094 L 6.476562 150.707031 L 6.804688 151.621094 L 7.140625 152.535156 L 7.3125 152.992188 L 7.488281 153.445312 L 7.660156 153.898438 L 7.839844 154.355469 L 8.019531 154.804688 L 8.199219 155.257812 L 8.382812 155.707031 L 8.566406 156.160156 L 8.941406 157.058594 L 9.132812 157.503906 L 9.324219 157.953125 L 9.714844 158.84375 L 9.914062 159.285156 L 10.117188 159.730469 L 10.316406 160.171875 L 10.523438 160.613281 L 10.726562 161.054688 L 10.933594 161.496094 L 11.144531 161.933594 L 11.355469 162.375 L 11.570312 162.808594 L 11.785156 163.246094 L 12.003906 163.683594 L 12.222656 164.117188 L 12.667969 164.984375 L 12.890625 165.414062 L 13.117188 165.84375 L 13.808594 167.132812 L 14.277344 167.984375 L 14.515625 168.40625 L 14.757812 168.832031 L 14.996094 169.253906 L 15.242188 169.675781 L 15.484375 170.097656 L 15.734375 170.515625 L 15.980469 170.933594 L 16.230469 171.351562 L 16.484375 171.765625 L 16.738281 172.183594 L 16.992188 172.597656 L 17.25 173.007812 L 17.511719 173.421875 L 17.769531 173.832031 L 18.035156 174.242188 L 18.296875 174.648438 L 18.566406 175.058594 L 18.832031 175.464844 L 19.101562 175.867188 L 19.375 176.273438 L 19.648438 176.675781 L 19.921875 177.074219 L 20.199219 177.476562 L 20.476562 177.875 L 20.757812 178.273438 L 21.039062 178.667969 L 21.324219 179.066406 L 21.609375 179.460938 L 21.898438 179.851562 L 22.183594 180.242188 L 22.769531 181.023438 L 23.355469 181.796875 L 23.65625 182.183594 L 23.953125 182.566406 L 24.554688 183.332031 L 25.164062 184.089844 L 25.472656 184.46875 L 26.089844 185.21875 L 26.402344 185.59375 L 26.714844 185.964844 L 27.347656 186.707031 L 27.664062 187.074219 L 27.984375 187.441406 L 28.308594 187.808594 L 28.628906 188.171875 L 28.953125 188.535156 L 29.9375 189.613281 L 30.933594 190.679688 L 31.605469 191.382812 L 31.945312 191.734375 L 32.625 192.429688 L 33.65625 193.460938 L 34.003906 193.800781 L 34.355469 194.140625 L 34.703125 194.480469 L 35.054688 194.816406 L 35.410156 195.148438 L 35.761719 195.484375 L 36.121094 195.816406 L 36.476562 196.144531 L 37.195312 196.800781 L 37.558594 197.128906 L 37.921875 197.453125 L 38.648438 198.09375 L 39.015625 198.414062 L 40.128906 199.363281 L 40.5 199.675781 L 40.875 199.988281 L 41.625 200.605469 L 42.761719 201.519531 L 43.527344 202.121094 L 43.914062 202.421875 L 44.296875 202.714844 L 44.683594 203.011719 L 45.464844 203.597656 L 46.246094 204.175781 L 47.429688 205.03125 L 47.828125 205.3125 L 48.226562 205.589844 L 48.625 205.871094 L 49.023438 206.144531 L 49.425781 206.421875 L 49.828125 206.691406 L 50.234375 206.964844 L 50.636719 207.234375 L 51.042969 207.5 L 51.453125 207.765625 L 51.859375 208.03125 L 52.269531 208.292969 L 52.683594 208.554688 L 53.09375 208.8125 L 53.507812 209.070312 L 54.335938 209.578125 L 54.753906 209.832031 L 55.171875 210.082031 L 56.007812 210.574219 L 56.429688 210.820312 L 57.273438 211.304688 L 58.125 211.78125 L 58.976562 212.25 L 59.402344 212.480469 L 59.832031 212.710938 L 60.261719 212.9375 L 60.695312 213.164062 L 61.125 213.390625 L 61.558594 213.613281 L 62.425781 214.050781 L 62.863281 214.269531 L 63.300781 214.484375 L 64.613281 215.117188 L 65.496094 215.53125 L 65.9375 215.734375 L 66.378906 215.933594 L 67.269531 216.332031 L 68.160156 216.722656 L 68.605469 216.914062 L 69.054688 217.105469 L 69.953125 217.480469 L 70.402344 217.664062 L 70.855469 217.847656 L 71.308594 218.027344 L 71.757812 218.207031 L 72.214844 218.382812 L 72.667969 218.558594 L 73.121094 218.730469 L 73.578125 218.902344 L 74.035156 219.070312 L 74.492188 219.234375 L 74.949219 219.402344 L 75.40625 219.5625 L 75.867188 219.726562 L 77.25 220.195312 L 78.171875 220.5 L 79.101562 220.796875 L 79.566406 220.941406 L 80.960938 221.363281 L 81.898438 221.636719 L 82.367188 221.769531 L 82.832031 221.898438 L 83.304688 222.027344 L 83.773438 222.15625 L 84.242188 222.28125 L 85.1875 222.523438 L 85.65625 222.640625 L 86.601562 222.875 L 87.078125 222.984375 L 87.550781 223.097656 L 88.023438 223.207031 L 88.976562 223.417969 L 89.449219 223.519531 L 89.925781 223.621094 L 90.402344 223.71875 L 90.878906 223.8125 L 91.359375 223.90625 L 91.835938 224 L 92.3125 224.089844 L 92.792969 224.179688 L 93.269531 224.265625 L 94.710938 224.511719 L 95.191406 224.585938 L 95.671875 224.664062 L 96.152344 224.738281 L 96.632812 224.808594 L 97.117188 224.878906 L 98.078125 225.011719 L 99.046875 225.136719 L 99.527344 225.195312 L 100.980469 225.359375 L 101.460938 225.410156 L 102.914062 225.550781 L 103.402344 225.589844 L 103.886719 225.632812 L 104.371094 225.671875 L 104.855469 225.707031 L 105.339844 225.738281 L 105.828125 225.773438 L 106.796875 225.828125 L 107.285156 225.855469 L 107.769531 225.878906 L 108.257812 225.902344 L 108.742188 225.917969 L 109.230469 225.9375 L 109.714844 225.953125 L 110.203125 225.964844 L 110.6875 225.976562 L 111.175781 225.984375 L 111.660156 225.992188 L 112.636719 226 L 113.609375 226 L 114.09375 225.996094 L 114.582031 225.988281 L 115.066406 225.980469 L 115.554688 225.972656 L 116.042969 225.960938 L 116.527344 225.945312 L 117.015625 225.929688 L 117.5 225.910156 L 117.988281 225.890625 L 118.957031 225.84375 L 119.445312 225.816406 L 119.929688 225.789062 L 120.414062 225.757812 L 120.902344 225.722656 L 121.871094 225.652344 L 122.355469 225.613281 L 122.84375 225.570312 L 123.328125 225.527344 L 124.296875 225.433594 L 124.78125 225.382812 L 125.261719 225.332031 L 126.230469 225.222656 L 126.714844 225.164062 L 127.195312 225.105469 L 127.679688 225.042969 L 128.160156 224.976562 L 128.644531 224.910156 L 129.125 224.84375 L 129.605469 224.773438 L 130.089844 224.699219 L 131.050781 224.550781 L 131.53125 224.46875 L 132.007812 224.390625 L 132.488281 224.308594 L 132.96875 224.222656 L 133.445312 224.132812 L 133.925781 224.046875 L 134.402344 223.953125 L 134.882812 223.859375 L 135.359375 223.765625 L 136.3125 223.570312 L 136.789062 223.46875 L 137.261719 223.363281 L 137.738281 223.257812 L 138.210938 223.152344 L 138.6875 223.042969 L 139.632812 222.816406 L 141.050781 222.464844 L 141.519531 222.339844 L 141.992188 222.21875 L 142.460938 222.089844 L 142.929688 221.964844 L 143.402344 221.832031 L 143.867188 221.703125 L 144.335938 221.566406 L 144.804688 221.433594 L 145.269531 221.292969 L 145.738281 221.152344 L 146.203125 221.011719 L 147.132812 220.722656 L 147.59375 220.574219 L 148.058594 220.425781 L 148.519531 220.273438 L 149.902344 219.804688 L 150.363281 219.644531 L 150.820312 219.484375 L 151.28125 219.320312 L 152.195312 218.984375 L 152.648438 218.816406 L 153.105469 218.644531 L 153.558594 218.46875 L 154.015625 218.292969 L 154.46875 218.117188 L 154.917969 217.9375 L 155.371094 217.753906 L 156.269531 217.386719 L 157.167969 217.011719 L 157.617188 216.820312 L 158.953125 216.234375 L 159.398438 216.035156 L 159.839844 215.835938 L 160.285156 215.632812 L 160.726562 215.425781 L 161.164062 215.21875 L 161.605469 215.011719 L 162.042969 214.800781 L 162.484375 214.589844 L 162.917969 214.375 L 163.355469 214.160156 L 163.789062 213.941406 L 164.226562 213.722656 L 164.660156 213.5 L 165.089844 213.277344 L 165.523438 213.050781 L 166.382812 212.597656 L 166.808594 212.367188 L 167.238281 212.132812 L 167.664062 211.898438 L 168.515625 211.421875 L 168.9375 211.183594 L 169.78125 210.699219 L 170.199219 210.453125 L 170.621094 210.207031 L 171.457031 209.707031 L 172.285156 209.199219 L 173.113281 208.683594 L 173.523438 208.425781 L 173.933594 208.164062 L 174.34375 207.898438 L 174.75 207.636719 L 175.160156 207.367188 L 175.5625 207.097656 L 175.96875 206.828125 L 176.371094 206.558594 L 176.773438 206.285156 L 177.175781 206.007812 L 177.972656 205.453125 L 178.371094 205.171875 L 178.769531 204.886719 L 179.164062 204.605469 L 179.558594 204.320312 L 180.730469 203.453125 L 181.121094 203.160156 L 181.507812 202.863281 L 181.894531 202.570312 L 182.28125 202.269531 L 182.664062 201.972656 L 183.046875 201.671875 L 183.425781 201.367188 L 183.808594 201.066406 L 184.1875 200.757812 L 184.5625 200.453125 L 184.9375 200.140625 L 185.3125 199.832031 L 185.6875 199.519531 L 186.058594 199.207031 L 186.429688 198.890625 L 186.796875 198.574219 L 187.167969 198.253906 L 187.53125 197.933594 L 187.898438 197.613281 L 188.625 196.964844 L 189.703125 195.980469 L 190.769531 194.984375 L 191.121094 194.648438 L 191.472656 194.308594 L 191.820312 193.972656 L 192.167969 193.632812 L 192.515625 193.289062 L 193.203125 192.601562 L 193.546875 192.253906 L 194.226562 191.558594 L 195.234375 190.503906 L 195.898438 189.792969 L 196.882812 188.714844 L 197.855469 187.625 L 198.175781 187.257812 L 198.492188 186.890625 L 198.8125 186.523438 L 199.128906 186.152344 L 199.441406 185.78125 L 200.066406 185.03125 L 200.683594 184.28125 L 201.292969 183.523438 L 201.59375 183.140625 L 201.898438 182.757812 L 202.195312 182.375 L 202.496094 181.992188 L 202.789062 181.605469 L 203.085938 181.21875 L 203.378906 180.828125 L 203.667969 180.4375 L 203.960938 180.046875 L 204.246094 179.65625 L 205.101562 178.472656 L 205.382812 178.074219 L 205.9375 177.277344 L 206.214844 176.875 L 206.761719 176.070312 L 207.03125 175.664062 L 207.300781 175.261719 L 207.566406 174.851562 L 207.832031 174.445312 L 208.097656 174.035156 L 208.621094 173.214844 L 208.878906 172.804688 L 209.132812 172.390625 L 209.390625 171.976562 L 209.644531 171.558594 L 209.894531 171.140625 L 210.144531 170.726562 L 210.390625 170.304688 L 210.636719 169.886719 L 210.882812 169.464844 L 211.125 169.042969 L 211.363281 168.621094 L 211.839844 167.769531 L 212.308594 166.917969 L 212.769531 166.058594 L 213.222656 165.199219 L 213.667969 164.332031 L 214.105469 163.464844 L 214.320312 163.027344 L 214.535156 162.59375 L 214.75 162.152344 L 214.960938 161.714844 L 215.167969 161.277344 L 215.582031 160.394531 L 215.785156 159.953125 L 215.984375 159.507812 L 216.183594 159.066406 L 216.382812 158.621094 L 216.578125 158.175781 L 216.769531 157.726562 L 216.960938 157.28125 L 217.152344 156.832031 L 217.527344 155.933594 L 217.710938 155.484375 L 218.070312 154.578125 L 218.25 154.128906 L 218.425781 153.671875 L 218.601562 153.21875 L 218.773438 152.765625 L 219.277344 151.394531 L 219.441406 150.9375 L 219.605469 150.476562 L 219.765625 150.019531 L 220.234375 148.636719 L 220.386719 148.171875 L 220.535156 147.710938 L 220.832031 146.78125 L 220.976562 146.320312 L 221.117188 145.851562 L 221.398438 144.921875 L 221.535156 144.453125 L 221.667969 143.984375 L 221.800781 143.519531 L 221.929688 143.046875 L 222.1875 142.109375 L 222.3125 141.640625 L 222.554688 140.695312 L 222.789062 139.75 L 223.015625 138.804688 L 223.125 138.332031 L 223.230469 137.855469 L 223.339844 137.382812 L 223.644531 135.953125 L 223.742188 135.476562 L 224.023438 134.046875 L 224.113281 133.566406 L 224.199219 133.089844 L 224.285156 132.609375 L 224.53125 131.167969 L 224.605469 130.6875 L 224.683594 130.207031 L 224.894531 128.765625 L 224.960938 128.28125 L 225.027344 127.800781 L 225.089844 127.316406 L 225.148438 126.835938 L 225.265625 125.867188 L 225.320312 125.382812 L 225.371094 124.902344 L 225.421875 124.417969 L 225.515625 123.449219 L 225.558594 122.964844 L 225.601562 122.476562 L 225.679688 121.507812 L 225.75 120.539062 L 225.78125 120.050781 L 225.808594 119.566406 L 225.835938 119.078125 L 225.863281 118.59375 L 225.882812 118.109375 L 225.90625 117.621094 L 225.925781 117.136719 L 225.941406 116.648438 L 225.957031 116.164062 L 225.96875 115.675781 L 225.980469 115.191406 L 225.988281 114.703125 L 225.992188 114.214844 L 225.996094 113.730469 L 226 113.242188 L 226 112.757812 L 225.996094 112.269531 L 225.992188 111.785156 L 225.988281 111.296875 L 225.980469 110.808594 L 225.96875 110.324219 L 225.957031 109.835938 L 225.941406 109.351562 L 225.925781 108.863281 L 225.90625 108.378906 L 225.882812 107.890625 L 225.863281 107.40625 L 225.835938 106.921875 L 225.808594 106.433594 L 225.78125 105.949219 L 225.75 105.460938 L 225.679688 104.492188 L 225.601562 103.523438 L 225.558594 103.035156 L 225.515625 102.550781 L 225.421875 101.582031 L 225.371094 101.097656 L 225.320312 100.617188 L 225.265625 100.132812 L 225.148438 99.164062 L 225.089844 98.683594 L 225.027344 98.199219 L 224.960938 97.71875 L 224.894531 97.234375 L 224.683594 95.792969 L 224.605469 95.3125 L 224.53125 94.832031 L 224.285156 93.390625 L 224.199219 92.910156 L 224.113281 92.433594 L 224.023438 91.953125 L 223.742188 90.523438 L 223.644531 90.046875 L 223.339844 88.617188 L 223.230469 88.144531 L 223.125 87.667969 L 223.015625 87.195312 L 222.789062 86.25 L 222.554688 85.304688 L 222.3125 84.359375 L 222.1875 83.890625 L 221.929688 82.953125 L 221.800781 82.480469 L 221.667969 82.015625 L 221.535156 81.546875 L 221.398438 81.078125 L 221.117188 80.148438 L 220.976562 79.679688 L 220.832031 79.21875 L 220.535156 78.289062 L 220.386719 77.828125 L 220.234375 77.363281 L 219.765625 75.980469 L 219.605469 75.523438 L 219.441406 75.0625 L 219.277344 74.605469 L 218.773438 73.234375 L 218.601562 72.78125 L 218.425781 72.328125 L 218.25 71.871094 L 218.070312 71.421875 L 217.710938 70.515625 L 217.527344 70.066406 L 217.152344 69.167969 L 216.960938 68.71875 L 216.769531 68.273438 L 216.578125 67.824219 L 216.382812 67.378906 L 216.183594 66.933594 L 215.984375 66.492188 L 215.785156 66.046875 L 215.582031 65.605469 L 215.167969 64.722656 L 214.960938 64.285156 L 214.75 63.847656 L 214.535156 63.40625 L 214.320312 62.972656 L 214.105469 62.535156 L 213.667969 61.667969 L 213.222656 60.800781 L 212.769531 59.941406 L 212.308594 59.082031 L 211.839844 58.230469 L 211.363281 57.378906 L 211.125 56.957031 L 210.882812 56.535156 L 210.636719 56.113281 L 210.390625 55.695312 L 210.144531 55.273438 L 209.894531 54.859375 L 209.644531 54.441406 L 209.390625 54.023438 L 209.132812 53.609375 L 208.878906 53.195312 L 208.621094 52.785156 L 208.097656 51.964844 L 207.832031 51.554688 L 207.566406 51.148438 L 207.300781 50.738281 L 207.03125 50.335938 L 206.761719 49.929688 L 206.214844 49.125 L 205.9375 48.722656 L 205.382812 47.925781 L 205.101562 47.527344 L 204.246094 46.34375 L 203.960938 45.953125 L 203.667969 45.5625 L 203.378906 45.171875 L 203.085938 44.78125 L 202.789062 44.394531 L 202.496094 44.007812 L 202.195312 43.625 L 201.898438 43.242188 L 201.59375 42.859375 L 201.292969 42.476562 L 200.683594 41.71875 L 200.066406 40.96875 L 199.441406 40.21875 L 199.128906 39.847656 L 198.8125 39.476562 L 198.492188 39.109375 L 198.175781 38.742188 L 197.855469 38.375 L 196.882812 37.285156 L 195.898438 36.207031 L 195.234375 35.496094 L 194.226562 34.441406 L 193.546875 33.746094 L 193.203125 33.398438 L 192.515625 32.710938 L 192.167969 32.367188 L 191.820312 32.027344 L 191.472656 31.691406 L 191.121094 31.351562 L 190.769531 31.015625 L 189.703125 30.019531 L 188.625 29.035156 L 187.898438 28.386719 L 187.53125 28.066406 L 187.167969 27.746094 L 186.796875 27.425781 L 186.429688 27.109375 L 186.058594 26.792969 L 185.6875 26.480469 L 185.3125 26.167969 L 184.9375 25.859375 L 184.5625 25.546875 L 184.1875 25.242188 L 183.808594 24.933594 L 183.425781 24.632812 L 183.046875 24.328125 L 182.664062 24.027344 L 182.28125 23.730469 L 181.894531 23.429688 L 181.507812 23.136719 L 181.121094 22.839844 L 180.730469 22.546875 L 179.558594 21.679688 L 179.164062 21.394531 L 178.769531 21.113281 L 178.371094 20.828125 L 177.972656 20.546875 L 177.175781 19.992188 L 176.773438 19.714844 L 176.371094 19.441406 L 175.96875 19.171875 L 175.5625 18.902344 L 175.160156 18.632812 L 174.75 18.363281 L 174.34375 18.101562 L 173.933594 17.835938 L 173.523438 17.574219 L 173.113281 17.316406 L 172.285156 16.800781 L 171.457031 16.292969 L 170.621094 15.792969 L 170.199219 15.546875 L 169.78125 15.300781 L 168.9375 14.816406 L 168.515625 14.578125 L 167.664062 14.101562 L 167.238281 13.867188 L 166.808594 13.632812 L 166.382812 13.402344 L 165.523438 12.949219 L 165.089844 12.722656 L 164.660156 12.5 L 164.226562 12.277344 L 163.789062 12.058594 L 163.355469 11.839844 L 162.917969 11.625 L 162.484375 11.410156 L 162.042969 11.199219 L 161.605469 10.988281 L 161.164062 10.78125 L 160.726562 10.574219 L 160.285156 10.367188 L 159.839844 10.164062 L 159.398438 9.964844 L 158.953125 9.765625 L 157.617188 9.179688 L 157.167969 8.988281 L 156.269531 8.613281 L 155.371094 8.246094 L 154.917969 8.0625 L 154.46875 7.882812 L 154.015625 7.707031 L 153.558594 7.53125 L 153.105469 7.355469 L 152.648438 7.183594 L 152.195312 7.015625 L 151.28125 6.679688 L 150.820312 6.515625 L 150.363281 6.355469 L 149.902344 6.195312 L 148.519531 5.726562 L 148.058594 5.574219 L 147.59375 5.425781 L 147.132812 5.277344 L 146.203125 4.988281 L 145.738281 4.847656 L 145.269531 4.707031 L 144.804688 4.566406 L 144.335938 4.433594 L 143.867188 4.296875 L 143.402344 4.167969 L 142.929688 4.035156 L 142.460938 3.910156 L 141.992188 3.78125 L 141.519531 3.660156 L 141.050781 3.535156 L 139.632812 3.183594 L 138.6875 2.957031 L 138.210938 2.847656 L 137.738281 2.742188 L 137.261719 2.636719 L 136.789062 2.53125 L 136.3125 2.429688 L 135.359375 2.234375 L 134.882812 2.140625 L 134.402344 2.046875 L 133.925781 1.953125 L 133.445312 1.867188 L 132.96875 1.777344 L 132.488281 1.691406 L 132.007812 1.609375 L 131.53125 1.53125 L 131.050781 1.449219 L 130.089844 1.300781 L 129.605469 1.226562 L 129.125 1.15625 L 128.644531 1.089844 L 128.160156 1.023438 L 127.679688 0.957031 L 127.195312 0.894531 L 126.714844 0.835938 L 126.230469 0.777344 L 125.261719 0.667969 L 124.78125 0.617188 L 124.296875 0.566406 L 123.328125 0.472656 L 122.84375 0.429688 L 122.355469 0.386719 L 121.871094 0.347656 L 120.902344 0.277344 L 120.414062 0.242188 L 119.929688 0.210938 L 119.445312 0.183594 L 118.957031 0.15625 L 117.988281 0.109375 L 117.5 0.0898438 L 117.015625 0.0703125 L 116.527344 0.0546875 L 116.042969 0.0390625 L 115.554688 0.0273438 L 115.066406 0.0195312 L 114.582031 0.0117188 L 114.09375 0.00390625 L 113.609375 0 L 112.636719 0 L 111.660156 0.0078125 L 111.175781 0.015625 L 110.6875 0.0234375 L 110.203125 0.0351562 L 109.714844 0.046875 L 109.230469 0.0625 L 108.742188 0.0820312 L 108.257812 0.0976562 L 107.769531 0.121094 L 107.285156 0.144531 L 106.796875 0.171875 L 105.828125 0.226562 L 105.339844 0.261719 L 104.855469 0.292969 L 104.371094 0.328125 L 103.886719 0.367188 L 103.402344 0.410156 L 102.914062 0.449219 L 101.460938 0.589844 L 100.980469 0.640625 L 99.527344 0.804688 L 99.046875 0.863281 L 98.078125 0.988281 L 97.117188 1.121094 L 96.632812 1.191406 L 96.152344 1.261719 L 95.671875 1.335938 L 95.191406 1.414062 L 94.710938 1.488281 L 93.269531 1.734375 L 92.792969 1.820312 L 92.3125 1.910156 L 91.835938 2 L 91.359375 2.09375 L 90.878906 2.1875 L 90.402344 2.28125 L 89.925781 2.378906 L 89.449219 2.480469 L 88.976562 2.582031 L 88.023438 2.792969 L 87.550781 2.902344 L 87.078125 3.015625 L 86.601562 3.125 L 85.65625 3.359375 L 85.1875 3.476562 L 84.242188 3.71875 L 83.773438 3.84375 L 83.304688 3.972656 L 82.832031 4.101562 L 82.367188 4.230469 L 81.898438 4.363281 L 80.960938 4.636719 L 79.566406 5.058594 L 79.101562 5.203125 L 78.171875 5.5 L 77.25 5.804688 L 75.867188 6.273438 L 75.40625 6.4375 L 74.949219 6.597656 L 74.492188 6.765625 L 74.035156 6.929688 L 73.578125 7.097656 L 73.121094 7.269531 L 72.667969 7.441406 L 72.214844 7.617188 L 71.757812 7.792969 L 71.308594 7.972656 L 70.855469 8.152344 L 70.402344 8.335938 L 69.953125 8.519531 L 69.054688 8.894531 L 68.605469 9.085938 L 68.160156 9.277344 L 67.269531 9.667969 L 66.378906 10.066406 L 65.9375 10.265625 L 65.496094 10.46875 L 64.613281 10.882812 L 63.300781 11.515625 L 62.863281 11.730469 L 62.425781 11.949219 L 61.558594 12.386719 L 61.125 12.609375 L 60.695312 12.835938 L 60.261719 13.0625 L 59.832031 13.289062 L 59.402344 13.519531 L 58.976562 13.75 L 58.125 14.21875 L 57.273438 14.695312 L 56.429688 15.179688 L 56.007812 15.425781 L 55.171875 15.917969 L 54.753906 16.167969 L 54.335938 16.421875 L 53.507812 16.929688 L 53.09375 17.1875 L 52.683594 17.445312 L 52.269531 17.707031 L 51.859375 17.96875 L 51.453125 18.234375 L 51.042969 18.5 L 50.636719 18.765625 L 50.234375 19.035156 L 49.828125 19.308594 L 49.425781 19.578125 L 49.023438 19.855469 L 48.625 20.128906 L 48.226562 20.410156 L 47.828125 20.6875 L 47.429688 20.96875 L 46.246094 21.824219 L 45.464844 22.402344 L 44.683594 22.988281 L 44.296875 23.285156 L 43.914062 23.578125 L 43.527344 23.878906 L 42.761719 24.480469 L 41.625 25.394531 L 40.875 26.011719 L 40.5 26.324219 L 40.128906 26.636719 L 39.015625 27.585938 L 38.648438 27.90625 L 37.921875 28.546875 L 37.558594 28.871094 L 37.195312 29.199219 L 36.476562 29.855469 L 36.121094 30.183594 L 35.761719 30.515625 L 35.410156 30.851562 L 35.054688 31.183594 L 34.703125 31.519531 L 34.355469 31.859375 L 34.003906 32.199219 L 33.65625 32.539062 L 32.625 33.570312 L 31.945312 34.265625 L 31.605469 34.617188 L 30.933594 35.320312 L 29.9375 36.386719 L 28.953125 37.464844 L 28.628906 37.828125 L 28.308594 38.191406 L 27.984375 38.558594 L 27.664062 38.925781 L 27.347656 39.292969 L 26.714844 40.035156 L 26.402344 40.40625 L 26.089844 40.78125 L 25.472656 41.53125 L 25.164062 41.910156 L 24.554688 42.667969 L 23.953125 43.433594 L 23.65625 43.816406 L 23.355469 44.203125 L 22.769531 44.976562 L 22.183594 45.757812 L 21.898438 46.148438 L 21.609375 46.539062 L 21.324219 46.933594 L 21.039062 47.332031 L 20.757812 47.726562 L 20.476562 48.125 L 20.199219 48.523438 L 19.921875 48.925781 L 19.648438 49.324219 L 19.375 49.726562 L 19.101562 50.132812 L 18.832031 50.535156 L 18.566406 50.941406 L 18.296875 51.351562 L 18.035156 51.757812 L 17.769531 52.167969 L 17.511719 52.578125 L 17.25 52.992188 L 16.992188 53.402344 L 16.738281 53.816406 L 16.484375 54.234375 L 16.230469 54.648438 L 15.980469 55.066406 L 15.734375 55.484375 L 15.484375 55.902344 L 15.242188 56.324219 L 14.996094 56.746094 L 14.757812 57.167969 L 14.515625 57.59375 L 14.277344 58.015625 L 13.808594 58.867188 L 13.117188 60.15625 L 12.890625 60.585938 L 12.667969 61.015625 L 12.222656 61.882812 L 12.003906 62.316406 L 11.785156 62.753906 L 11.570312 63.191406 L 11.355469 63.625 L 11.144531 64.066406 L 10.933594 64.503906 L 10.726562 64.945312 L 10.523438 65.386719 L 10.316406 65.828125 L 10.117188 66.269531 L 9.914062 66.714844 L 9.714844 67.15625 L 9.324219 68.046875 L 9.132812 68.496094 L 8.941406 68.941406 L 8.566406 69.839844 L 8.382812 70.292969 L 8.199219 70.742188 L 8.019531 71.195312 L 7.839844 71.644531 L 7.660156 72.101562 L 7.488281 72.554688 L 7.3125 73.007812 L 7.140625 73.464844 L 6.804688 74.378906 L 6.476562 75.292969 L 6.316406 75.753906 L 6.15625 76.210938 L 5.84375 77.132812 L 5.691406 77.59375 L 5.539062 78.058594 L 5.386719 78.519531 L 5.242188 78.984375 L 5.09375 79.449219 L 4.8125 80.378906 L 4.671875 80.847656 L 4.535156 81.3125 L 4.398438 81.78125 L 4.265625 82.25 L 4.132812 82.714844 L 4.003906 83.1875 L 3.875 83.65625 L 3.75 84.125 L 3.628906 84.597656 L 3.507812 85.066406 L 3.386719 85.539062 L 3.269531 86.011719 L 3.042969 86.957031 L 2.929688 87.433594 L 2.820312 87.90625 L 2.714844 88.378906 L 2.609375 88.855469 L 2.40625 89.808594 L 2.210938 90.761719 L 2.023438 91.714844 L 1.933594 92.195312 L 1.84375 92.671875 L 1.757812 93.152344 L 1.671875 93.628906 L 1.507812 94.589844 L 1.429688 95.070312 L 1.28125 96.03125 L 1.210938 96.511719 L 1.140625 96.996094 L 1.070312 97.476562 L 1.003906 97.960938 L 0.941406 98.441406 L 0.878906 98.925781 L 0.820312 99.40625 L 0.761719 99.890625 L 0.652344 100.859375 L 0.601562 101.339844 L 0.460938 102.792969 L 0.417969 103.28125 L 0.300781 104.734375 L 0.269531 105.21875 L 0.234375 105.707031 L 0.207031 106.191406 L 0.175781 106.675781 L 0.152344 107.164062 L 0.125 107.648438 L 0.105469 108.136719 L 0.0859375 108.621094 L 0.0664062 109.109375 L 0.0507812 109.59375 L 0.0390625 110.082031 L 0.0273438 110.566406 L 0.015625 111.054688 L 0.0078125 111.539062 L 0.00390625 112.027344 L 0 112.511719 L 0 113 "/>
<path style="fill:none;stroke-width:0.75;stroke-linecap:round;stroke-linejoin:round;stroke:rgb(0%,0%,0%);stroke-opacity:1;stroke-miterlimit:10;" d="M 113 113 Z M 113 113 "/>
</g>
</svg>
