<?xml version="1.0" standalone="no"?> 
<!DOCTYPE svg PUBLIC "-//W3C//DTD SVG 1.1//EN" 
  "http://www.w3.org/Graphics/SVG/1.1/DTD/svg11.dtd"> 

<svg width="360" height="360" version="1.1" 
  xmlns="http://www.w3.org/2000/svg" xmlns:xlink="http://www.w3.org/1999/xlink">


<circle cx="180" cy="180" r="180" style="fill:none;stroke:black;stroke-width:1;" />
<line x1="180" y1="0" x2="180" y2="360" style="stroke:black;stroke-width:1.6875;"/>
<line x1="180" y1="180" x2="360" y2="180" style="stroke:black;stroke-width:1.125;"/>
<line x1="0" y1="0" x2="0" y2="360" style="stroke:black;stroke-width:0.5;"/>
<line x1="0" y1="360" x2="360" y2="360" style="stroke:black;stroke-width:0.5;"/>
<line x1="360" y1="360" x2="360" y2="0" style="stroke:black;stroke-width:0.5;"/>
<line x1="360" y1="0" x2="0" y2="0" style="stroke:black;stroke-width:0.5;"/>
<line x1="180" y1="181.6875" x2="0.0079103300647887" y2="181.6875" style="stroke:black;stroke-width:1.125;"/>
<line x1="180" y1="185.0625" x2="0.0712054901995316" y2="185.0625" style="stroke:black;stroke-width:1.125;"/>
<line x1="180" y1="188.4375" x2="0.197862655223133" y2="188.4375" style="stroke:black;stroke-width:1.125;"/>
<line x1="180" y1="191.8125" x2="0.388015868233339" y2="191.8125" style="stroke:black;stroke-width:1.125;"/>
<line x1="180" y1="195.1875" x2="0.641867082225673" y2="195.1875" style="stroke:black;stroke-width:1.125;"/>
<line x1="180" y1="198.5625" x2="0.959687238460162" y2="198.5625" style="stroke:black;stroke-width:1.125;"/>
<line x1="180" y1="201.9375" x2="1.34181772515987" y2="201.9375" style="stroke:black;stroke-width:1.125;"/>
<line x1="180" y1="205.3125" x2="1.78867223504" y2="205.3125" style="stroke:black;stroke-width:1.125;"/>
<line x1="180" y1="208.6875" x2="2.30073904557173" y2="208.6875" style="stroke:black;stroke-width:1.125;"/>
<line x1="180" y1="212.0625" x2="2.87858375185118" y2="212.0625" style="stroke:black;stroke-width:1.125;"/>
<line x1="180" y1="215.4375" x2="3.52285248862955" y2="215.4375" style="stroke:black;stroke-width:1.125;"/>
<line x1="180" y1="218.8125" x2="4.23427568564455" y2="218.8125" style="stroke:black;stroke-width:1.125;"/>
<line x1="180" y1="222.1875" x2="5.01367240909934" y2="222.1875" style="stroke:black;stroke-width:1.125;"/>
<line x1="180" y1="225.5625" x2="5.86195535222637" y2="225.5625" style="stroke:black;stroke-width:1.125;"/>
<line x1="180" y1="228.9375" x2="6.78013654967279" y2="228.9375" style="stroke:black;stroke-width:1.125;"/>
<line x1="180" y1="232.3125" x2="7.76933390435372" y2="232.3125" style="stroke:black;stroke-width:1.125;"/>
<line x1="180" y1="235.6875" x2="8.83077863193395" y2="235.6875" style="stroke:black;stroke-width:1.125;"/>
<line x1="180" y1="239.0625" x2="9.9658237478418" y2="239.0625" style="stroke:black;stroke-width:1.125;"/>
<line x1="180" y1="242.4375" x2="11.175953745475" y2="242.4375" style="stroke:black;stroke-width:1.125;"/>
<line x1="180" y1="245.8125" x2="12.4627956430274" y2="245.8125" style="stroke:black;stroke-width:1.125;"/>
<line x1="180" y1="249.1875" x2="13.8281316114247" y2="249.1875" style="stroke:black;stroke-width:1.125;"/>
<line x1="180" y1="252.5625" x2="15.2739134388545" y2="252.5625" style="stroke:black;stroke-width:1.125;"/>
<line x1="180" y1="255.9375" x2="16.8022791404549" y2="255.9375" style="stroke:black;stroke-width:1.125;"/>
<line x1="180" y1="259.3125" x2="18.4155720876854" y2="259.3125" style="stroke:black;stroke-width:1.125;"/>
<line x1="180" y1="262.6875" x2="20.1163631144513" y2="262.6875" style="stroke:black;stroke-width:1.125;"/>
<line x1="180" y1="266.0625" x2="21.90747616111" y2="266.0625" style="stroke:black;stroke-width:1.125;"/>
<line x1="180" y1="269.4375" x2="23.7920181496797" y2="269.4375" style="stroke:black;stroke-width:1.125;"/>
<line x1="180" y1="272.8125" x2="25.7734139528791" y2="272.8125" style="stroke:black;stroke-width:1.125;"/>
<line x1="180" y1="276.1875" x2="27.855447538369" y2="276.1875" style="stroke:black;stroke-width:1.125;"/>
<line x1="180" y1="279.5625" x2="30.042310654805" y2="279.5625" style="stroke:black;stroke-width:1.125;"/>
<line x1="180" y1="282.9375" x2="32.3386608019892" y2="282.9375" style="stroke:black;stroke-width:1.125;"/>
<line x1="180" y1="286.3125" x2="34.7496907275238" y2="286.3125" style="stroke:black;stroke-width:1.125;"/>
<line x1="180" y1="289.6875" x2="37.2812123658907" y2="289.6875" style="stroke:black;stroke-width:1.125;"/>
<line x1="180" y1="293.0625" x2="39.9397590543626" y2="293.0625" style="stroke:black;stroke-width:1.125;"/>
<line x1="180" y1="296.4375" x2="42.7327111298908" y2="296.4375" style="stroke:black;stroke-width:1.125;"/>
<line x1="180" y1="299.8125" x2="45.668451792775" y2="299.8125" style="stroke:black;stroke-width:1.125;"/>
<line x1="180" y1="303.1875" x2="48.7565626640707" y2="303.1875" style="stroke:black;stroke-width:1.125;"/>
<line x1="180" y1="306.5625" x2="52.008072153944" y2="306.5625" style="stroke:black;stroke-width:1.125;"/>
<line x1="180" y1="309.9375" x2="55.4357752251876" y2="309.9375" style="stroke:black;stroke-width:1.125;"/>
<line x1="180" y1="313.3125" x2="59.0546514174687" y2="313.3125" style="stroke:black;stroke-width:1.125;"/>
<line x1="180" y1="316.6875" x2="62.8824208594201" y2="316.6875" style="stroke:black;stroke-width:1.125;"/>
<line x1="180" y1="320.0625" x2="66.9402985420977" y2="320.0625" style="stroke:black;stroke-width:1.125;"/>
<line x1="180" y1="323.4375" x2="71.2540410233557" y2="323.4375" style="stroke:black;stroke-width:1.125;"/>
<line x1="180" y1="326.8125" x2="75.8554377619743" y2="326.8125" style="stroke:black;stroke-width:1.125;"/>
<line x1="180" y1="330.1875" x2="80.7845030060828" y2="330.1875" style="stroke:black;stroke-width:1.125;"/>
<line x1="180" y1="333.5625" x2="86.0928192641798" y2="333.5625" style="stroke:black;stroke-width:1.125;"/>
<line x1="180" y1="336.9375" x2="91.8488735537089" y2="336.9375" style="stroke:black;stroke-width:1.125;"/>
<line x1="180" y1="340.3125" x2="98.1470688139392" y2="340.3125" style="stroke:black;stroke-width:1.125;"/>
<line x1="180" y1="343.6875" x2="105.124087025599" y2="343.6875" style="stroke:black;stroke-width:1.125;"/>
<line x1="180" y1="347.0625" x2="112.991634151026" y2="347.0625" style="stroke:black;stroke-width:1.125;"/>
<line x1="180" y1="350.4375" x2="122.111671351213" y2="350.4375" style="stroke:black;stroke-width:1.125;"/>
<line x1="180" y1="353.8125" x2="133.210953805939" y2="353.8125" style="stroke:black;stroke-width:1.125;"/>
<line x1="180" y1="357.1875" x2="148.304734679293" y2="357.1875" style="stroke:black;stroke-width:1.125;"/>
<line x1="180" y1="178.3125" x2="0.0079103300647887" y2="178.3125" style="stroke:black;stroke-width:1.125;"/>
<line x1="180" y1="174.9375" x2="0.0712054901995316" y2="174.9375" style="stroke:black;stroke-width:1.125;"/>
<line x1="180" y1="171.5625" x2="0.197862655223133" y2="171.5625" style="stroke:black;stroke-width:1.125;"/>
<line x1="180" y1="168.1875" x2="0.388015868233339" y2="168.1875" style="stroke:black;stroke-width:1.125;"/>
<line x1="180" y1="164.8125" x2="0.641867082225673" y2="164.8125" style="stroke:black;stroke-width:1.125;"/>
<line x1="180" y1="161.4375" x2="0.959687238460162" y2="161.4375" style="stroke:black;stroke-width:1.125;"/>
<line x1="180" y1="158.0625" x2="1.34181772515987" y2="158.0625" style="stroke:black;stroke-width:1.125;"/>
<line x1="180" y1="154.6875" x2="1.78867223504" y2="154.6875" style="stroke:black;stroke-width:1.125;"/>
<line x1="180" y1="151.3125" x2="2.30073904557173" y2="151.3125" style="stroke:black;stroke-width:1.125;"/>
<line x1="180" y1="147.9375" x2="2.87858375185118" y2="147.9375" style="stroke:black;stroke-width:1.125;"/>
<line x1="180" y1="144.5625" x2="3.52285248862955" y2="144.5625" style="stroke:black;stroke-width:1.125;"/>
<line x1="180" y1="141.1875" x2="4.23427568564455" y2="141.1875" style="stroke:black;stroke-width:1.125;"/>
<line x1="180" y1="137.8125" x2="5.01367240909934" y2="137.8125" style="stroke:black;stroke-width:1.125;"/>
<line x1="180" y1="134.4375" x2="5.86195535222637" y2="134.4375" style="stroke:black;stroke-width:1.125;"/>
<line x1="180" y1="131.0625" x2="6.78013654967279" y2="131.0625" style="stroke:black;stroke-width:1.125;"/>
<line x1="180" y1="127.6875" x2="7.76933390435372" y2="127.6875" style="stroke:black;stroke-width:1.125;"/>
<line x1="180" y1="124.3125" x2="8.83077863193395" y2="124.3125" style="stroke:black;stroke-width:1.125;"/>
<line x1="180" y1="120.9375" x2="9.9658237478418" y2="120.9375" style="stroke:black;stroke-width:1.125;"/>
<line x1="180" y1="117.5625" x2="11.175953745475" y2="117.5625" style="stroke:black;stroke-width:1.125;"/>
<line x1="180" y1="114.1875" x2="12.4627956430274" y2="114.1875" style="stroke:black;stroke-width:1.125;"/>
<line x1="180" y1="110.8125" x2="13.8281316114247" y2="110.8125" style="stroke:black;stroke-width:1.125;"/>
<line x1="180" y1="107.4375" x2="15.2739134388545" y2="107.4375" style="stroke:black;stroke-width:1.125;"/>
<line x1="180" y1="104.0625" x2="16.8022791404549" y2="104.0625" style="stroke:black;stroke-width:1.125;"/>
<line x1="180" y1="100.6875" x2="18.4155720876854" y2="100.6875" style="stroke:black;stroke-width:1.125;"/>
<line x1="180" y1="97.3125" x2="20.1163631144513" y2="97.3125" style="stroke:black;stroke-width:1.125;"/>
<line x1="180" y1="93.9375" x2="21.90747616111" y2="93.9375" style="stroke:black;stroke-width:1.125;"/>
<line x1="180" y1="90.5625" x2="23.7920181496797" y2="90.5625" style="stroke:black;stroke-width:1.125;"/>
<line x1="180" y1="87.1875" x2="25.7734139528791" y2="87.1875" style="stroke:black;stroke-width:1.125;"/>
<line x1="180" y1="83.8125" x2="27.855447538369" y2="83.8125" style="stroke:black;stroke-width:1.125;"/>
<line x1="180" y1="80.4375" x2="30.042310654805" y2="80.4375" style="stroke:black;stroke-width:1.125;"/>
<line x1="180" y1="77.0625" x2="32.3386608019892" y2="77.0625" style="stroke:black;stroke-width:1.125;"/>
<line x1="180" y1="73.6875" x2="34.7496907275238" y2="73.6875" style="stroke:black;stroke-width:1.125;"/>
<line x1="180" y1="70.3125" x2="37.2812123658907" y2="70.3125" style="stroke:black;stroke-width:1.125;"/>
<line x1="180" y1="66.9375" x2="39.9397590543626" y2="66.9375" style="stroke:black;stroke-width:1.125;"/>
<line x1="180" y1="63.5625" x2="42.7327111298908" y2="63.5625" style="stroke:black;stroke-width:1.125;"/>
<line x1="180" y1="60.1875" x2="45.668451792775" y2="60.1875" style="stroke:black;stroke-width:1.125;"/>
<line x1="180" y1="56.8125" x2="48.7565626640707" y2="56.8125" style="stroke:black;stroke-width:1.125;"/>
<line x1="180" y1="53.4375" x2="52.008072153944" y2="53.4375" style="stroke:black;stroke-width:1.125;"/>
<line x1="180" y1="50.0625" x2="55.4357752251876" y2="50.0625" style="stroke:black;stroke-width:1.125;"/>
<line x1="180" y1="46.6875" x2="59.0546514174687" y2="46.6875" style="stroke:black;stroke-width:1.125;"/>
<line x1="180" y1="43.3125" x2="62.8824208594201" y2="43.3125" style="stroke:black;stroke-width:1.125;"/>
<line x1="180" y1="39.9375" x2="66.9402985420977" y2="39.9375" style="stroke:black;stroke-width:1.125;"/>
<line x1="180" y1="36.5625" x2="71.2540410233557" y2="36.5625" style="stroke:black;stroke-width:1.125;"/>
<line x1="180" y1="33.1875" x2="75.8554377619743" y2="33.1875" style="stroke:black;stroke-width:1.125;"/>
<line x1="180" y1="29.8125" x2="80.7845030060828" y2="29.8125" style="stroke:black;stroke-width:1.125;"/>
<line x1="180" y1="26.4375" x2="86.0928192641798" y2="26.4375" style="stroke:black;stroke-width:1.125;"/>
<line x1="180" y1="23.0625" x2="91.8488735537089" y2="23.0625" style="stroke:black;stroke-width:1.125;"/>
<line x1="180" y1="19.6875" x2="98.1470688139392" y2="19.6875" style="stroke:black;stroke-width:1.125;"/>
<line x1="180" y1="16.3125" x2="105.124087025599" y2="16.3125" style="stroke:black;stroke-width:1.125;"/>
<line x1="180" y1="12.9375" x2="112.991634151026" y2="12.9375" style="stroke:black;stroke-width:1.125;"/>
<line x1="180" y1="9.5625" x2="122.111671351213" y2="9.5625" style="stroke:black;stroke-width:1.125;"/>
<line x1="180" y1="6.1875" x2="133.210953805939" y2="6.1875" style="stroke:black;stroke-width:1.125;"/>
<line x1="180" y1="2.8125" x2="148.304734679293" y2="2.8125" style="stroke:black;stroke-width:1.125;"/>
<line x1="180" y1="180" x2="335.884572681199" y2="270" style="stroke:black;stroke-width:1.125;"/>
<line x1="180" y1="183.375" x2="334.40260226866" y2="272.51938398339" style="stroke:black;stroke-width:1.125;"/>
<line x1="180" y1="186.75" x2="332.879510501782" y2="275.015026541782" style="stroke:black;stroke-width:1.125;"/>
<line x1="180" y1="190.125" x2="331.315248515016" y2="277.48689946264" style="stroke:black;stroke-width:1.125;"/>
<line x1="180" y1="193.5" x2="329.709734650375" y2="279.934955600702" style="stroke:black;stroke-width:1.125;"/>
<line x1="180" y1="196.875" x2="328.062854132219" y2="282.359128690221" style="stroke:black;stroke-width:1.125;"/>
<line x1="180" y1="200.25" x2="326.374458607728" y2="284.759333079657" style="stroke:black;stroke-width:1.125;"/>
<line x1="180" y1="203.625" x2="324.644365548738" y2="287.135463386327" style="stroke:black;stroke-width:1.125;"/>
<line x1="180" y1="207" x2="322.87235750927" y2="289.487394067734" style="stroke:black;stroke-width:1.125;"/>
<line x1="180" y1="210.375" x2="321.05818123161" y2="291.814978905469" style="stroke:black;stroke-width:1.125;"/>
<line x1="180" y1="213.75" x2="319.201546592235" y2="294.118050396639" style="stroke:black;stroke-width:1.125;"/>
<line x1="180" y1="217.125" x2="317.302125377145" y2="296.396419046802" style="stroke:black;stroke-width:1.125;"/>
<line x1="180" y1="220.5" x2="315.359549874202" y2="298.649872557257" style="stroke:black;stroke-width:1.125;"/>
<line x1="180" y1="223.875" x2="313.373411267972" y2="300.878174898302" style="stroke:black;stroke-width:1.125;"/>
<line x1="180" y1="227.25" x2="311.34325782008" y2="303.081065258666" style="stroke:black;stroke-width:1.125;"/>
<line x1="180" y1="230.625" x2="309.268592815367" y2="305.258256859717" style="stroke:black;stroke-width:1.125;"/>
<line x1="180" y1="234" x2="307.14887225092" y2="307.409435621226" style="stroke:black;stroke-width:1.125;"/>
<line x1="180" y1="237.375" x2="304.983502241436" y2="309.534258663355" style="stroke:black;stroke-width:1.125;"/>
<line x1="180" y1="240.75" x2="302.771836110143" y2="311.632352627096" style="stroke:black;stroke-width:1.125;"/>
<line x1="180" y1="244.125" x2="300.513171129566" y2="313.70331179255" style="stroke:black;stroke-width:1.125;"/>
<line x1="180" y1="247.5" x2="298.206744870688" y2="315.746695971121" style="stroke:black;stroke-width:1.125;"/>
<line x1="180" y1="250.875" x2="295.851731112296" y2="317.762028143768" style="stroke:black;stroke-width:1.125;"/>
<line x1="180" y1="254.25" x2="293.447235254283" y2="319.748791812879" style="stroke:black;stroke-width:1.125;"/>
<line x1="180" y1="257.625" x2="290.992289169233" y2="321.70642802983" style="stroke:black;stroke-width:1.125;"/>
<line x1="180" y1="261" x2="288.485845415274" y2="323.634332053772" style="stroke:black;stroke-width:1.125;"/>
<line x1="180" y1="264.375" x2="285.926770719654" y2="325.53184958938" style="stroke:black;stroke-width:1.125;"/>
<line x1="180" y1="267.75" x2="283.313838626195" y2="327.398272541847" style="stroke:black;stroke-width:1.125;"/>
<line x1="180" y1="271.125" x2="280.645721180001" y2="329.232834216058" style="stroke:black;stroke-width:1.125;"/>
<line x1="180" y1="274.5" x2="277.920979498821" y2="331.034703872956" style="stroke:black;stroke-width:1.125;"/>
<line x1="180" y1="277.875" x2="275.138053051029" y2="332.802980539188" style="stroke:black;stroke-width:1.125;"/>
<line x1="180" y1="281.25" x2="272.295247424073" y2="334.536685945212" style="stroke:black;stroke-width:1.125;"/>
<line x1="180" y1="284.625" x2="269.390720322411" y2="336.234756441198" style="stroke:black;stroke-width:1.125;"/>
<line x1="180" y1="288" x2="266.422465478179" y2="337.896033707858" style="stroke:black;stroke-width:1.125;"/>
<line x1="180" y1="291.375" x2="263.388294087839" y2="339.519254038878" style="stroke:black;stroke-width:1.125;"/>
<line x1="180" y1="294.75" x2="260.285813299535" y2="341.103035920594" style="stroke:black;stroke-width:1.125;"/>
<line x1="180" y1="298.125" x2="257.112401163247" y2="342.645865569459" style="stroke:black;stroke-width:1.125;"/>
<line x1="180" y1="301.5" x2="253.865177311161" y2="344.146080004339" style="stroke:black;stroke-width:1.125;"/>
<line x1="180" y1="304.875" x2="250.540968448253" y2="345.601847122496" style="stroke:black;stroke-width:1.125;"/>
<line x1="180" y1="308.25" x2="247.136267488105" y2="347.011142106644" style="stroke:black;stroke-width:1.125;"/>
<line x1="180" y1="311.625" x2="243.64718484536" y2="348.371719303631" style="stroke:black;stroke-width:1.125;"/>
<line x1="180" y1="315" x2="240.069389964144" y2="349.681078465855" style="stroke:black;stroke-width:1.125;"/>
<line x1="180" y1="318.375" x2="236.398040578007" y2="350.93642390948" style="stroke:black;stroke-width:1.125;"/>
<line x1="180" y1="321.75" x2="232.627696398149" y2="352.134614682301" style="stroke:black;stroke-width:1.125;"/>
<line x1="180" y1="325.125" x2="228.752212818184" y2="353.272103194168" style="stroke:black;stroke-width:1.125;"/>
<line x1="180" y1="328.5" x2="224.764608662053" y2="354.344858861204" style="stroke:black;stroke-width:1.125;"/>
<line x1="180" y1="331.875" x2="220.656899764252" y2="355.348272023307" style="stroke:black;stroke-width:1.125;"/>
<line x1="180" y1="335.25" x2="216.419886906423" y2="356.277031509279" style="stroke:black;stroke-width:1.125;"/>
<line x1="180" y1="338.625" x2="212.042881770649" y2="357.124966415896" style="stroke:black;stroke-width:1.125;"/>
<line x1="180" y1="342" x2="207.513347157409" y2="357.884838387638" style="stroke:black;stroke-width:1.125;"/>
<line x1="180" y1="345.375" x2="202.81641612509" y2="358.548063991763" style="stroke:black;stroke-width:1.125;"/>
<line x1="180" y1="348.75" x2="197.934236047107" y2="359.104336009508" style="stroke:black;stroke-width:1.125;"/>
<line x1="180" y1="352.125" x2="192.845052522852" y2="359.541094531823" style="stroke:black;stroke-width:1.125;"/>
<line x1="180" y1="355.5" x2="187.521894356269" y2="359.842767731408" style="stroke:black;stroke-width:1.125;"/>
<line x1="180" y1="358.875" x2="181.930623625754" y2="359.989646070033" style="stroke:black;stroke-width:1.125;"/>
<line x1="180" y1="180" x2="335.884572681199" y2="90" style="stroke:black;stroke-width:1.125;"/>
<line x1="180" y1="176.625" x2="334.40260226866" y2="87.4806160166103" style="stroke:black;stroke-width:1.125;"/>
<line x1="180" y1="173.25" x2="332.879510501782" y2="84.984973458218" style="stroke:black;stroke-width:1.125;"/>
<line x1="180" y1="169.875" x2="331.315248515016" y2="82.5131005373602" style="stroke:black;stroke-width:1.125;"/>
<line x1="180" y1="166.5" x2="329.709734650375" y2="80.0650443992984" style="stroke:black;stroke-width:1.125;"/>
<line x1="180" y1="163.125" x2="328.062854132219" y2="77.640871309779" style="stroke:black;stroke-width:1.125;"/>
<line x1="180" y1="159.75" x2="326.374458607728" y2="75.2406669203426" style="stroke:black;stroke-width:1.125;"/>
<line x1="180" y1="156.375" x2="324.644365548738" y2="72.8645366136733" style="stroke:black;stroke-width:1.125;"/>
<line x1="180" y1="153" x2="322.87235750927" y2="70.5126059322663" style="stroke:black;stroke-width:1.125;"/>
<line x1="180" y1="149.625" x2="321.05818123161" y2="68.1850210945313" style="stroke:black;stroke-width:1.125;"/>
<line x1="180" y1="146.25" x2="319.201546592235" y2="65.881949603361" style="stroke:black;stroke-width:1.125;"/>
<line x1="180" y1="142.875" x2="317.302125377145" y2="63.6035809531977" style="stroke:black;stroke-width:1.125;"/>
<line x1="180" y1="139.5" x2="315.359549874202" y2="61.3501274427428" style="stroke:black;stroke-width:1.125;"/>
<line x1="180" y1="136.125" x2="313.373411267972" y2="59.1218251016979" style="stroke:black;stroke-width:1.125;"/>
<line x1="180" y1="132.75" x2="311.34325782008" y2="56.9189347413343" style="stroke:black;stroke-width:1.125;"/>
<line x1="180" y1="129.375" x2="309.268592815367" y2="54.7417431402835" style="stroke:black;stroke-width:1.125;"/>
<line x1="180" y1="126" x2="307.14887225092" y2="52.5905643787741" style="stroke:black;stroke-width:1.125;"/>
<line x1="180" y1="122.625" x2="304.983502241436" y2="50.4657413366448" style="stroke:black;stroke-width:1.125;"/>
<line x1="180" y1="119.25" x2="302.771836110143" y2="48.3676473729041" style="stroke:black;stroke-width:1.125;"/>
<line x1="180" y1="115.875" x2="300.513171129566" y2="46.2966882074496" style="stroke:black;stroke-width:1.125;"/>
<line x1="180" y1="112.5" x2="298.206744870688" y2="44.2533040288787" style="stroke:black;stroke-width:1.125;"/>
<line x1="180" y1="109.125" x2="295.851731112296" y2="42.237971856232" style="stroke:black;stroke-width:1.125;"/>
<line x1="180" y1="105.75" x2="293.447235254283" y2="40.251208187121" style="stroke:black;stroke-width:1.125;"/>
<line x1="180" y1="102.375" x2="290.992289169233" y2="38.2935719701703" style="stroke:black;stroke-width:1.125;"/>
<line x1="180" y1="99" x2="288.485845415274" y2="36.3656679462276" style="stroke:black;stroke-width:1.125;"/>
<line x1="180" y1="95.625" x2="285.926770719654" y2="34.4681504106201" style="stroke:black;stroke-width:1.125;"/>
<line x1="180" y1="92.25" x2="283.313838626195" y2="32.601727458153" style="stroke:black;stroke-width:1.125;"/>
<line x1="180" y1="88.875" x2="280.645721180001" y2="30.7671657839421" style="stroke:black;stroke-width:1.125;"/>
<line x1="180" y1="85.5" x2="277.920979498821" y2="28.965296127044" style="stroke:black;stroke-width:1.125;"/>
<line x1="180" y1="82.125" x2="275.138053051029" y2="27.1970194608115" style="stroke:black;stroke-width:1.125;"/>
<line x1="180" y1="78.75" x2="272.295247424073" y2="25.4633140547881" style="stroke:black;stroke-width:1.125;"/>
<line x1="180" y1="75.375" x2="269.390720322411" y2="23.7652435588017" style="stroke:black;stroke-width:1.125;"/>
<line x1="180" y1="72" x2="266.422465478179" y2="22.1039662921422" style="stroke:black;stroke-width:1.125;"/>
<line x1="180" y1="68.625" x2="263.388294087839" y2="20.4807459611222" style="stroke:black;stroke-width:1.125;"/>
<line x1="180" y1="65.25" x2="260.285813299535" y2="18.8969640794057" style="stroke:black;stroke-width:1.125;"/>
<line x1="180" y1="61.875" x2="257.112401163247" y2="17.3541344305411" style="stroke:black;stroke-width:1.125;"/>
<line x1="180" y1="58.5" x2="253.865177311161" y2="15.8539199956615" style="stroke:black;stroke-width:1.125;"/>
<line x1="180" y1="55.125" x2="250.540968448253" y2="14.398152877504" style="stroke:black;stroke-width:1.125;"/>
<line x1="180" y1="51.75" x2="247.136267488105" y2="12.988857893356" style="stroke:black;stroke-width:1.125;"/>
<line x1="180" y1="48.375" x2="243.64718484536" y2="11.6282806963695" style="stroke:black;stroke-width:1.125;"/>
<line x1="180" y1="45" x2="240.069389964144" y2="10.318921534145" style="stroke:black;stroke-width:1.125;"/>
<line x1="180" y1="41.625" x2="236.398040578007" y2="9.06357609052003" style="stroke:black;stroke-width:1.125;"/>
<line x1="180" y1="38.25" x2="232.627696398149" y2="7.86538531769889" style="stroke:black;stroke-width:1.125;"/>
<line x1="180" y1="34.875" x2="228.752212818184" y2="6.72789680583168" style="stroke:black;stroke-width:1.125;"/>
<line x1="180" y1="31.5" x2="224.764608662053" y2="5.65514113879561" style="stroke:black;stroke-width:1.125;"/>
<line x1="180" y1="28.125" x2="220.656899764252" y2="4.65172797669334" style="stroke:black;stroke-width:1.125;"/>
<line x1="180" y1="24.75" x2="216.419886906423" y2="3.72296849072094" style="stroke:black;stroke-width:1.125;"/>
<line x1="180" y1="21.375" x2="212.042881770649" y2="2.87503358410427" style="stroke:black;stroke-width:1.125;"/>
<line x1="180" y1="18" x2="207.513347157409" y2="2.1151616123625" style="stroke:black;stroke-width:1.125;"/>
<line x1="180" y1="14.625" x2="202.81641612509" y2="1.45193600823686" style="stroke:black;stroke-width:1.125;"/>
<line x1="180" y1="11.25" x2="197.934236047107" y2="0.895663990492295" style="stroke:black;stroke-width:1.125;"/>
<line x1="180" y1="7.875" x2="192.845052522852" y2="0.458905468176511" style="stroke:black;stroke-width:1.125;"/>
<line x1="180" y1="4.5" x2="187.521894356269" y2="0.157232268592111" style="stroke:black;stroke-width:1.125;"/>
<line x1="180" y1="1.125" x2="181.930623625754" y2="0.0103539299671809" style="stroke:black;stroke-width:1.125;"/>
<line x1="185.845671475545" y1="180" x2="337.325438006433" y2="267.45688398339" style="stroke:black;stroke-width:1.125;"/>
<line x1="191.69134295109" y1="180" x2="338.725181977327" y2="264.890026541782" style="stroke:black;stroke-width:1.125;"/>
<line x1="197.537014426635" y1="180" x2="340.083755728334" y2="262.29939946264" style="stroke:black;stroke-width:1.125;"/>
<line x1="203.38268590218" y1="180" x2="341.401077601465" y2="259.684955600702" style="stroke:black;stroke-width:1.125;"/>
<line x1="209.228357377725" y1="180" x2="342.677032821081" y2="257.046628690221" style="stroke:black;stroke-width:1.125;"/>
<line x1="215.07402885327" y1="180" x2="343.911473034363" y2="254.384333079657" style="stroke:black;stroke-width:1.125;"/>
<line x1="220.919700328815" y1="180" x2="345.104215713146" y2="251.697963386327" style="stroke:black;stroke-width:1.125;"/>
<line x1="226.76537180436" y1="180" x2="346.25504341145" y2="248.987394067734" style="stroke:black;stroke-width:1.125;"/>
<line x1="232.611043279905" y1="180" x2="347.363702871562" y2="246.252478905469" style="stroke:black;stroke-width:1.125;"/>
<line x1="238.45671475545" y1="180" x2="348.42990396996" y2="243.493050396639" style="stroke:black;stroke-width:1.125;"/>
<line x1="244.302386230995" y1="180" x2="349.453318492642" y2="240.708919046802" style="stroke:black;stroke-width:1.125;"/>
<line x1="250.14805770654" y1="180" x2="350.433578727472" y2="237.899872557257" style="stroke:black;stroke-width:1.125;"/>
<line x1="255.993729182085" y1="180" x2="351.370275859014" y2="235.065674898302" style="stroke:black;stroke-width:1.125;"/>
<line x1="261.839400657629" y1="180" x2="352.262958148895" y2="232.206065258666" style="stroke:black;stroke-width:1.125;"/>
<line x1="267.685072133174" y1="180" x2="353.111128881955" y2="229.320756859717" style="stroke:black;stroke-width:1.125;"/>
<line x1="273.530743608719" y1="180" x2="353.914244055279" y2="226.409435621226" style="stroke:black;stroke-width:1.125;"/>
<line x1="279.376415084264" y1="180" x2="354.671709783568" y2="223.471758663355" style="stroke:black;stroke-width:1.125;"/>
<line x1="285.222086559809" y1="180" x2="355.382879390048" y2="220.507352627096" style="stroke:black;stroke-width:1.125;"/>
<line x1="291.067758035354" y1="180" x2="356.047050147243" y2="217.51581179255" style="stroke:black;stroke-width:1.125;"/>
<line x1="296.913429510899" y1="180" x2="356.663459626138" y2="214.496695971121" style="stroke:black;stroke-width:1.125;"/>
<line x1="302.759100986444" y1="180" x2="357.231281605518" y2="211.449528143768" style="stroke:black;stroke-width:1.125;"/>
<line x1="308.604772461989" y1="180" x2="357.749621485277" y2="208.373791812879" style="stroke:black;stroke-width:1.125;"/>
<line x1="314.450443937534" y1="180" x2="358.217511138" y2="205.26892802983" style="stroke:black;stroke-width:1.125;"/>
<line x1="320.296115413079" y1="180" x2="358.633903121813" y2="202.134332053772" style="stroke:black;stroke-width:1.125;"/>
<line x1="326.141786888624" y1="180" x2="358.997664163966" y2="198.96934958938" style="stroke:black;stroke-width:1.125;"/>
<line x1="331.987458364169" y1="180" x2="359.307567808279" y2="195.773272541847" style="stroke:black;stroke-width:1.125;"/>
<line x1="337.833129839714" y1="180" x2="359.562286099858" y2="192.545334216058" style="stroke:black;stroke-width:1.125;"/>
<line x1="343.678801315259" y1="180" x2="359.76038015645" y2="189.284703872956" style="stroke:black;stroke-width:1.125;"/>
<line x1="349.524472790804" y1="180" x2="359.900289446431" y2="185.990480539188" style="stroke:black;stroke-width:1.125;"/>
<line x1="355.370144266349" y1="180" x2="359.980319557248" y2="182.661685945212" style="stroke:black;stroke-width:1.125;"/>
<line x1="185.845671475545" y1="180" x2="337.325438006433" y2="92.5431160166103" style="stroke:black;stroke-width:1.125;"/>
<line x1="191.69134295109" y1="180" x2="338.725181977327" y2="95.109973458218" style="stroke:black;stroke-width:1.125;"/>
<line x1="197.537014426635" y1="180" x2="340.083755728334" y2="97.7006005373602" style="stroke:black;stroke-width:1.125;"/>
<line x1="203.38268590218" y1="180" x2="341.401077601465" y2="100.315044399298" style="stroke:black;stroke-width:1.125;"/>
<line x1="209.228357377725" y1="180" x2="342.677032821081" y2="102.953371309779" style="stroke:black;stroke-width:1.125;"/>
<line x1="215.07402885327" y1="180" x2="343.911473034363" y2="105.615666920343" style="stroke:black;stroke-width:1.125;"/>
<line x1="220.919700328815" y1="180" x2="345.104215713146" y2="108.302036613673" style="stroke:black;stroke-width:1.125;"/>
<line x1="226.76537180436" y1="180" x2="346.25504341145" y2="111.012605932266" style="stroke:black;stroke-width:1.125;"/>
<line x1="232.611043279905" y1="180" x2="347.363702871562" y2="113.747521094531" style="stroke:black;stroke-width:1.125;"/>
<line x1="238.45671475545" y1="180" x2="348.42990396996" y2="116.506949603361" style="stroke:black;stroke-width:1.125;"/>
<line x1="244.302386230995" y1="180" x2="349.453318492642" y2="119.291080953198" style="stroke:black;stroke-width:1.125;"/>
<line x1="250.14805770654" y1="180" x2="350.433578727472" y2="122.100127442743" style="stroke:black;stroke-width:1.125;"/>
<line x1="255.993729182085" y1="180" x2="351.370275859014" y2="124.934325101698" style="stroke:black;stroke-width:1.125;"/>
<line x1="261.839400657629" y1="180" x2="352.262958148895" y2="127.793934741334" style="stroke:black;stroke-width:1.125;"/>
<line x1="267.685072133174" y1="180" x2="353.111128881955" y2="130.679243140283" style="stroke:black;stroke-width:1.125;"/>
<line x1="273.530743608719" y1="180" x2="353.914244055279" y2="133.590564378774" style="stroke:black;stroke-width:1.125;"/>
<line x1="279.376415084264" y1="180" x2="354.671709783568" y2="136.528241336645" style="stroke:black;stroke-width:1.125;"/>
<line x1="285.222086559809" y1="180" x2="355.382879390048" y2="139.492647372904" style="stroke:black;stroke-width:1.125;"/>
<line x1="291.067758035354" y1="180" x2="356.047050147243" y2="142.48418820745" style="stroke:black;stroke-width:1.125;"/>
<line x1="296.913429510899" y1="180" x2="356.663459626138" y2="145.503304028879" style="stroke:black;stroke-width:1.125;"/>
<line x1="302.759100986444" y1="180" x2="357.231281605518" y2="148.550471856232" style="stroke:black;stroke-width:1.125;"/>
<line x1="308.604772461989" y1="180" x2="357.749621485277" y2="151.626208187121" style="stroke:black;stroke-width:1.125;"/>
<line x1="314.450443937534" y1="180" x2="358.217511138" y2="154.73107197017" style="stroke:black;stroke-width:1.125;"/>
<line x1="320.296115413079" y1="180" x2="358.633903121813" y2="157.865667946228" style="stroke:black;stroke-width:1.125;"/>
<line x1="326.141786888624" y1="180" x2="358.997664163966" y2="161.03065041062" style="stroke:black;stroke-width:1.125;"/>
<line x1="331.987458364169" y1="180" x2="359.307567808279" y2="164.226727458153" style="stroke:black;stroke-width:1.125;"/>
<line x1="337.833129839714" y1="180" x2="359.562286099858" y2="167.454665783942" style="stroke:black;stroke-width:1.125;"/>
<line x1="343.678801315259" y1="180" x2="359.76038015645" y2="170.715296127044" style="stroke:black;stroke-width:1.125;"/>
<line x1="349.524472790804" y1="180" x2="359.900289446431" y2="174.009519460812" style="stroke:black;stroke-width:1.125;"/>
<line x1="355.370144266349" y1="180" x2="359.980319557248" y2="177.338314054788" style="stroke:black;stroke-width:1.125;"/>

</svg>


